<?xml version="1.0" encoding="utf-8" standalone="no"?>
<!DOCTYPE svg PUBLIC "-//W3C//DTD SVG 1.1//EN"
  "http://www.w3.org/Graphics/SVG/1.1/DTD/svg11.dtd">
<svg xmlns:xlink="http://www.w3.org/1999/xlink" width="720pt" height="720pt" viewBox="0 0 720 720" xmlns="http://www.w3.org/2000/svg" version="1.1">
 <metadata>
  <rdf:RDF xmlns:dc="http://purl.org/dc/elements/1.1/" xmlns:cc="http://creativecommons.org/ns#" xmlns:rdf="http://www.w3.org/1999/02/22-rdf-syntax-ns#">
   <cc:Work>
    <dc:type rdf:resource="http://purl.org/dc/dcmitype/StillImage"/>
    <dc:date>2024-10-20T22:05:18.073232</dc:date>
    <dc:format>image/svg+xml</dc:format>
    <dc:creator>
     <cc:Agent>
      <dc:title>Matplotlib v3.6.0, https://matplotlib.org/</dc:title>
     </cc:Agent>
    </dc:creator>
   </cc:Work>
  </rdf:RDF>
 </metadata>
 <defs>
  <style type="text/css">*{stroke-linejoin: round; stroke-linecap: butt}</style>
 </defs>
 <g id="figure_1">
  <g id="patch_1">
   <path d="M 0 720 
L 720 720 
L 720 0 
L 0 0 
z
" style="fill: #ffffff"/>
  </g>
  <g id="axes_1">
   <g id="patch_2">
    <path d="M 90 640.8 
L 648 640.8 
L 648 86.4 
L 90 86.4 
z
" style="fill: #ffffff"/>
   </g>
   <g id="patch_3">
    <path d="M 478.104161 360.400782 
Q 368.610612 360.400797 260.794115 360.400812 
" clip-path="url(#p3709e53972)" style="fill: none; stroke: #808080; stroke-width: 1.5; stroke-linecap: round"/>
    <path d="M 264.794115 362.400811 
L 260.794115 360.400812 
L 264.794114 358.400811 
L 264.794115 362.400811 
z
" clip-path="url(#p3709e53972)" style="fill: #808080; stroke: #808080; stroke-width: 1.5; stroke-linecap: round"/>
   </g>
   <g id="patch_4">
    <path d="M 484.451305 368.749245 
Q 453.976613 478.877935 423.949184 587.390315 
" clip-path="url(#p3709e53972)" style="fill: none; stroke: #808080; stroke-width: 1.5; stroke-linecap: round"/>
    <path d="M 426.943531 584.068586 
L 423.949184 587.390315 
L 423.088408 583.0018 
L 426.943531 584.068586 
z
" clip-path="url(#p3709e53972)" style="fill: #808080; stroke: #808080; stroke-width: 1.5; stroke-linecap: round"/>
   </g>
   <g id="patch_5">
    <path d="M 482.973679 368.192552 
Q 427.684065 481.927066 373.127667 594.153304 
" clip-path="url(#p3709e53972)" style="fill: none; stroke: #808080; stroke-width: 1.5; stroke-linecap: round"/>
    <path d="M 376.675212 591.430269 
L 373.127667 594.153304 
L 373.077765 589.681447 
L 376.675212 591.430269 
z
" clip-path="url(#p3709e53972)" style="fill: #808080; stroke: #808080; stroke-width: 1.5; stroke-linecap: round"/>
   </g>
   <g id="patch_6">
    <path d="M 479.716823 365.443015 
Q 354.016093 455.413629 229.67909 544.408153 
" clip-path="url(#p3709e53972)" style="fill: none; stroke: #808080; stroke-width: 1.5; stroke-linecap: round"/>
    <path d="M 234.095821 543.70638 
L 229.67909 544.408153 
L 231.76771 540.453704 
L 234.095821 543.70638 
z
" clip-path="url(#p3709e53972)" style="fill: #808080; stroke: #808080; stroke-width: 1.5; stroke-linecap: round"/>
   </g>
   <g id="patch_7">
    <path d="M 486.14523 369.038129 
Q 478.949712 469.889847 471.873545 569.068766 
" clip-path="url(#p3709e53972)" style="fill: none; stroke: #808080; stroke-width: 1.5; stroke-linecap: round"/>
    <path d="M 474.15314 565.221241 
L 471.873545 569.068766 
L 470.163282 564.936575 
L 474.15314 565.221241 
z
" clip-path="url(#p3709e53972)" style="fill: #808080; stroke: #808080; stroke-width: 1.5; stroke-linecap: round"/>
   </g>
   <g id="patch_8">
    <path d="M 251.073595 369.03816 
Q 258.269113 469.889863 265.34528 569.068767 
" clip-path="url(#p3709e53972)" style="fill: none; stroke: #808080; stroke-width: 1.5; stroke-linecap: round"/>
    <path d="M 267.055542 564.936576 
L 265.34528 569.068767 
L 263.065685 565.221243 
L 267.055542 564.936576 
z
" clip-path="url(#p3709e53972)" style="fill: #808080; stroke: #808080; stroke-width: 1.5; stroke-linecap: round"/>
   </g>
   <g id="patch_9">
    <path d="M 255.519255 367.425959 
Q 335.823897 478.876275 415.148144 588.965956 
" clip-path="url(#p3709e53972)" style="fill: none; stroke: #808080; stroke-width: 1.5; stroke-linecap: round"/>
    <path d="M 414.432418 584.551464 
L 415.148144 588.965956 
L 411.187115 586.889842 
L 414.432418 584.551464 
z
" clip-path="url(#p3709e53972)" style="fill: #808080; stroke: #808080; stroke-width: 1.5; stroke-linecap: round"/>
   </g>
   <g id="patch_10">
    <path d="M 244.671333 366.840437 
Q 203.081853 413.128059 162.613228 458.16821 
" clip-path="url(#p3709e53972)" style="fill: none; stroke: #808080; stroke-width: 1.5; stroke-linecap: round"/>
    <path d="M 166.774318 456.529514 
L 162.613228 458.16821 
L 163.798925 453.85612 
L 166.774318 456.529514 
z
" clip-path="url(#p3709e53972)" style="fill: #808080; stroke: #808080; stroke-width: 1.5; stroke-linecap: round"/>
   </g>
   <g id="patch_11">
    <path d="M 254.245146 368.192583 
Q 309.534763 481.927082 364.091163 594.153305 
" clip-path="url(#p3709e53972)" style="fill: none; stroke: #808080; stroke-width: 1.5; stroke-linecap: round"/>
    <path d="M 364.141064 589.681448 
L 364.091163 594.153305 
L 360.543618 591.43027 
L 364.141064 589.681448 
z
" clip-path="url(#p3709e53972)" style="fill: #808080; stroke: #808080; stroke-width: 1.5; stroke-linecap: round"/>
   </g>
   <g id="patch_12">
    <path d="M 249.142464 368.96304 
Q 235.866503 455.413519 222.845098 540.206378 
" clip-path="url(#p3709e53972)" style="fill: none; stroke: #808080; stroke-width: 1.5; stroke-linecap: round"/>
    <path d="M 225.429076 536.556301 
L 222.845098 540.206378 
L 221.475424 535.94915 
L 225.429076 536.556301 
z
" clip-path="url(#p3709e53972)" style="fill: #808080; stroke: #808080; stroke-width: 1.5; stroke-linecap: round"/>
   </g>
   <g id="patch_13">
    <path d="M 258.201369 364.275027 
Q 401.908326 436.169343 544.115453 507.313318 
" clip-path="url(#p3709e53972)" style="fill: none; stroke: #808080; stroke-width: 1.5; stroke-linecap: round"/>
    <path d="M 541.432985 503.735 
L 544.115453 507.313318 
L 539.643317 507.312302 
L 541.432985 503.735 
z
" clip-path="url(#p3709e53972)" style="fill: #808080; stroke: #808080; stroke-width: 1.5; stroke-linecap: round"/>
   </g>
   <g id="patch_14">
    <path d="M 258.708958 363.02928 
Q 415.984112 413.127657 571.661325 462.717027 
" clip-path="url(#p3709e53972)" style="fill: none; stroke: #808080; stroke-width: 1.5; stroke-linecap: round"/>
    <path d="M 568.457043 459.59732 
L 571.661325 462.717027 
L 567.24299 463.408629 
L 568.457043 459.59732 
z
" clip-path="url(#p3709e53972)" style="fill: #808080; stroke: #808080; stroke-width: 1.5; stroke-linecap: round"/>
   </g>
   <g id="patch_15">
    <path d="M 259.016936 361.729038 
Q 424.724484 387.442514 588.774814 412.898832 
" clip-path="url(#p3709e53972)" style="fill: none; stroke: #808080; stroke-width: 1.5; stroke-linecap: round"/>
    <path d="M 585.128796 410.30913 
L 588.774814 412.898832 
L 584.515441 414.261825 
L 585.128796 410.30913 
z
" clip-path="url(#p3709e53972)" style="fill: #808080; stroke: #808080; stroke-width: 1.5; stroke-linecap: round"/>
   </g>
   <g id="patch_16">
    <path d="M 259.119171 360.400812 
Q 427.685754 360.400787 594.575286 360.400762 
" clip-path="url(#p3709e53972)" style="fill: none; stroke: #808080; stroke-width: 1.5; stroke-linecap: round"/>
    <path d="M 590.575285 358.400762 
L 594.575286 360.400762 
L 590.575286 362.400762 
L 590.575285 358.400762 
z
" clip-path="url(#p3709e53972)" style="fill: #808080; stroke: #808080; stroke-width: 1.5; stroke-linecap: round"/>
   </g>
   <g id="patch_17">
    <path d="M 242.658823 356.642663 
Q 194.346748 333.360798 147.545448 310.806985 
" clip-path="url(#p3709e53972)" style="fill: none; stroke: #808080; stroke-width: 1.5; stroke-linecap: round"/>
    <path d="M 150.280605 314.345193 
L 147.545448 310.806985 
L 152.017109 310.741784 
L 150.280605 314.345193 
z
" clip-path="url(#p3709e53972)" style="fill: #808080; stroke: #808080; stroke-width: 1.5; stroke-linecap: round"/>
   </g>
   <g id="patch_18">
    <path d="M 241.80002 360.400814 
Q 191.381578 360.400818 142.640187 360.400823 
" clip-path="url(#p3709e53972)" style="fill: none; stroke: #808080; stroke-width: 1.5; stroke-linecap: round"/>
    <path d="M 146.640187 362.400822 
L 142.640187 360.400823 
L 146.640187 358.400822 
L 146.640187 362.400822 
z
" clip-path="url(#p3709e53972)" style="fill: #808080; stroke: #808080; stroke-width: 1.5; stroke-linecap: round"/>
   </g>
   <g id="patch_19">
    <path d="M 256.602698 354.302878 
Q 360.798077 250.911528 463.803018 148.701431 
" clip-path="url(#p3709e53972)" style="fill: none; stroke: #808080; stroke-width: 1.5; stroke-linecap: round"/>
    <path d="M 459.554932 150.099201 
L 463.803018 148.701431 
L 462.372383 152.938562 
L 459.554932 150.099201 
z
" clip-path="url(#p3709e53972)" style="fill: #808080; stroke: #808080; stroke-width: 1.5; stroke-linecap: round"/>
   </g>
   <g id="patch_20">
    <path d="M 252.767517 352.052351 
Q 283.242175 241.923672 313.26957 133.411303 
" clip-path="url(#p3709e53972)" style="fill: none; stroke: #808080; stroke-width: 1.5; stroke-linecap: round"/>
    <path d="M 310.275224 136.733034 
L 313.26957 133.411303 
L 314.130347 137.799818 
L 310.275224 136.733034 
z
" clip-path="url(#p3709e53972)" style="fill: #808080; stroke: #808080; stroke-width: 1.5; stroke-linecap: round"/>
   </g>
   <g id="patch_21">
    <path d="M 362.571644 475.714178 
Q 309.533929 421.163088 257.665271 367.814413 
" clip-path="url(#p3709e53972)" style="fill: none; stroke: #808080; stroke-width: 1.5; stroke-linecap: round"/>
    <path d="M 259.019673 372.076525 
L 257.665271 367.814413 
L 261.887602 369.288159 
L 259.019673 372.076525 
z
" clip-path="url(#p3709e53972)" style="fill: #808080; stroke: #808080; stroke-width: 1.5; stroke-linecap: round"/>
   </g>
   <g id="patch_22">
    <path d="M 372.199116 489.804366 
Q 394.900663 539.638939 416.906986 587.947352 
" clip-path="url(#p3709e53972)" style="fill: none; stroke: #808080; stroke-width: 1.5; stroke-linecap: round"/>
    <path d="M 417.068832 583.478146 
L 416.906986 587.947352 
L 413.428728 585.136352 
L 417.068832 583.478146 
z
" clip-path="url(#p3709e53972)" style="fill: #808080; stroke: #808080; stroke-width: 1.5; stroke-linecap: round"/>
   </g>
   <g id="patch_23">
    <path d="M 368.609414 490.583812 
Q 368.609414 542.684488 368.609415 593.108112 
" clip-path="url(#p3709e53972)" style="fill: none; stroke: #808080; stroke-width: 1.5; stroke-linecap: round"/>
    <path d="M 370.609415 589.108112 
L 368.609415 593.108112 
L 366.609415 589.108112 
L 370.609415 589.108112 
z
" clip-path="url(#p3709e53972)" style="fill: #808080; stroke: #808080; stroke-width: 1.5; stroke-linecap: round"/>
   </g>
   <g id="patch_24">
    <path d="M 377.15963 483.313262 
Q 460.986036 496.931354 543.157093 510.280524 
" clip-path="url(#p3709e53972)" style="fill: none; stroke: #808080; stroke-width: 1.5; stroke-linecap: round"/>
    <path d="M 539.529561 507.66499 
L 543.157093 510.280524 
L 538.888147 511.613229 
L 539.529561 507.66499 
z
" clip-path="url(#p3709e53972)" style="fill: #808080; stroke: #808080; stroke-width: 1.5; stroke-linecap: round"/>
   </g>
   <g id="patch_25">
    <path d="M 374.531679 475.610448 
Q 475.061009 368.435219 574.443016 262.48316 
" clip-path="url(#p3709e53972)" style="fill: none; stroke: #808080; stroke-width: 1.5; stroke-linecap: round"/>
    <path d="M 570.247772 264.032333 
L 574.443016 262.48316 
L 573.165207 266.768858 
L 570.247772 264.032333 
z
" clip-path="url(#p3709e53972)" style="fill: #808080; stroke: #808080; stroke-width: 1.5; stroke-linecap: round"/>
   </g>
   <g id="patch_26">
    <path d="M 361.722917 476.675007 
Q 253.419044 394.120531 146.44893 312.582711 
" clip-path="url(#p3709e53972)" style="fill: none; stroke: #808080; stroke-width: 1.5; stroke-linecap: round"/>
    <path d="M 148.417697 316.598175 
L 146.44893 312.582711 
L 150.842562 313.416976 
L 148.417697 316.598175 
z
" clip-path="url(#p3709e53972)" style="fill: #808080; stroke: #808080; stroke-width: 1.5; stroke-linecap: round"/>
   </g>
   <g id="patch_27">
    <path d="M 374.889163 487.89318 
Q 419.875085 530.652652 463.645454 572.256732 
" clip-path="url(#p3709e53972)" style="fill: none; stroke: #808080; stroke-width: 1.5; stroke-linecap: round"/>
    <path d="M 462.124078 568.051329 
L 463.645454 572.256732 
L 459.368306 570.950591 
L 462.124078 568.051329 
z
" clip-path="url(#p3709e53972)" style="fill: #808080; stroke: #808080; stroke-width: 1.5; stroke-linecap: round"/>
   </g>
   <g id="patch_28">
    <path d="M 365.019712 489.804366 
Q 342.318167 539.638939 320.311846 587.947352 
" clip-path="url(#p3709e53972)" style="fill: none; stroke: #808080; stroke-width: 1.5; stroke-linecap: round"/>
    <path d="M 323.790103 585.136351 
L 320.311846 587.947352 
L 320.15 583.478146 
L 323.790103 585.136351 
z
" clip-path="url(#p3709e53972)" style="fill: #808080; stroke: #808080; stroke-width: 1.5; stroke-linecap: round"/>
   </g>
   <g id="patch_29">
    <path d="M 274.681833 580.375183 
Q 343.633475 588.365852 410.919214 596.163463 
" clip-path="url(#p3709e53972)" style="fill: none; stroke: #808080; stroke-width: 1.5; stroke-linecap: round"/>
    <path d="M 407.176042 593.716289 
L 410.919214 596.163463 
L 406.715571 597.689696 
L 407.176042 593.716289 
z
" clip-path="url(#p3709e53972)" style="fill: #808080; stroke: #808080; stroke-width: 1.5; stroke-linecap: round"/>
   </g>
   <g id="patch_30">
    <path d="M 163.464378 469.697364 
Q 288.448694 531.604074 411.930206 592.766421 
" clip-path="url(#p3709e53972)" style="fill: none; stroke: #808080; stroke-width: 1.5; stroke-linecap: round"/>
    <path d="M 409.233511 589.198812 
L 411.930206 592.766421 
L 407.458101 592.783211 
L 409.233511 589.198812 
z
" clip-path="url(#p3709e53972)" style="fill: #808080; stroke: #808080; stroke-width: 1.5; stroke-linecap: round"/>
   </g>
   <g id="patch_31">
    <path d="M 602.12408 352.201436 
Q 579.136925 284.633432 556.689912 218.653113 
" clip-path="url(#p3709e53972)" style="fill: none; stroke: #808080; stroke-width: 1.5; stroke-linecap: round"/>
    <path d="M 556.084802 223.084122 
L 556.689912 218.653113 
L 559.871654 221.795806 
L 556.084802 223.084122 
z
" clip-path="url(#p3709e53972)" style="fill: #808080; stroke: #808080; stroke-width: 1.5; stroke-linecap: round"/>
   </g>
   <g id="patch_32">
    <path d="M 576.998117 247.557802 
Q 567.436021 231.905579 558.748214 217.68448 
" clip-path="url(#p3709e53972)" style="fill: none; stroke: #808080; stroke-width: 1.5; stroke-linecap: round"/>
    <path d="M 559.126797 222.140563 
L 558.748214 217.68448 
L 562.54023 220.055264 
L 559.126797 222.140563 
z
" clip-path="url(#p3709e53972)" style="fill: #808080; stroke: #808080; stroke-width: 1.5; stroke-linecap: round"/>
   </g>
   <g id="patch_33">
    <path d="M 576.207388 248.10505 
Q 548.727955 212.663704 522.276126 178.547699 
" clip-path="url(#p3709e53972)" style="fill: none; stroke: #808080; stroke-width: 1.5; stroke-linecap: round"/>
    <path d="M 523.146541 182.934312 
L 522.276126 178.547699 
L 526.307666 180.483335 
L 523.146541 182.934312 
z
" clip-path="url(#p3709e53972)" style="fill: #808080; stroke: #808080; stroke-width: 1.5; stroke-linecap: round"/>
   </g>
   <g id="patch_34">
    <path d="M 463.866122 574.678847 
Q 301.722009 469.889877 140.986404 366.011184 
" clip-path="url(#p3709e53972)" style="fill: none; stroke: #808080; stroke-width: 1.5; stroke-linecap: round"/>
    <path d="M 143.260323 369.862067 
L 140.986404 366.011184 
L 145.431461 366.502579 
L 143.260323 369.862067 
z
" clip-path="url(#p3709e53972)" style="fill: #808080; stroke: #808080; stroke-width: 1.5; stroke-linecap: round"/>
   </g>
   <g id="patch_35">
    <path d="M 462.708461 577.399553 
Q 327.49841 545.658176 193.921026 514.300077 
" clip-path="url(#p3709e53972)" style="fill: none; stroke: #808080; stroke-width: 1.5; stroke-linecap: round"/>
    <path d="M 197.358075 517.161316 
L 193.921026 514.300077 
L 198.272247 513.267181 
L 197.358075 517.161316 
z
" clip-path="url(#p3709e53972)" style="fill: #808080; stroke: #808080; stroke-width: 1.5; stroke-linecap: round"/>
   </g>
   <g id="patch_36">
    <path d="M 462.98945 582.311085 
Q 446.166151 588.365788 430.920819 593.852581 
" clip-path="url(#p3709e53972)" style="fill: none; stroke: #808080; stroke-width: 1.5; stroke-linecap: round"/>
    <path d="M 435.361761 594.379871 
L 430.920819 593.852581 
L 434.007217 590.616202 
L 435.361761 594.379871 
z
" clip-path="url(#p3709e53972)" style="fill: #808080; stroke: #808080; stroke-width: 1.5; stroke-linecap: round"/>
   </g>
   <g id="patch_37">
    <path d="M 462.705527 581.358003 
Q 419.874394 591.41288 378.675927 601.084479 
" clip-path="url(#p3709e53972)" style="fill: none; stroke: #808080; stroke-width: 1.5; stroke-linecap: round"/>
    <path d="M 383.027149 602.117374 
L 378.675927 601.084479 
L 382.112976 598.223239 
L 383.027149 602.117374 
z
" clip-path="url(#p3709e53972)" style="fill: #808080; stroke: #808080; stroke-width: 1.5; stroke-linecap: round"/>
   </g>
   <g id="patch_38">
    <path d="M 464.992618 573.280499 
Q 360.797205 469.889173 257.792231 367.679098 
" clip-path="url(#p3709e53972)" style="fill: none; stroke: #808080; stroke-width: 1.5; stroke-linecap: round"/>
    <path d="M 259.222868 371.916229 
L 257.792231 367.679098 
L 262.040318 369.076867 
L 259.222868 371.916229 
z
" clip-path="url(#p3709e53972)" style="fill: #808080; stroke: #808080; stroke-width: 1.5; stroke-linecap: round"/>
   </g>
   <g id="patch_39">
    <path d="M 467.466183 571.536323 
Q 368.610305 360.402799 270.465558 150.788088 
" clip-path="url(#p3709e53972)" style="fill: none; stroke: #808080; stroke-width: 1.5; stroke-linecap: round"/>
    <path d="M 270.350414 155.258741 
L 270.465558 150.788088 
L 273.972995 153.562595 
L 270.350414 155.258741 
z
" clip-path="url(#p3709e53972)" style="fill: #808080; stroke: #808080; stroke-width: 1.5; stroke-linecap: round"/>
   </g>
   <g id="patch_40">
    <path d="M 462.708393 143.402023 
Q 327.498389 175.143393 193.921051 206.501485 
" clip-path="url(#p3709e53972)" style="fill: none; stroke: #808080; stroke-width: 1.5; stroke-linecap: round"/>
    <path d="M 198.272272 207.534381 
L 193.921051 206.501485 
L 197.3581 203.640246 
L 198.272272 207.534381 
z
" clip-path="url(#p3709e53972)" style="fill: #808080; stroke: #808080; stroke-width: 1.5; stroke-linecap: round"/>
   </g>
   <g id="patch_41">
    <path d="M 190.556478 203.370402 
Q 224.970879 175.142722 258.088616 147.978603 
" clip-path="url(#p3709e53972)" style="fill: none; stroke: #808080; stroke-width: 1.5; stroke-linecap: round"/>
    <path d="M 253.727521 148.968982 
L 258.088616 147.978603 
L 256.264262 152.061706 
L 253.727521 148.968982 
z
" clip-path="url(#p3709e53972)" style="fill: #808080; stroke: #808080; stroke-width: 1.5; stroke-linecap: round"/>
   </g>
   <g id="patch_42">
    <path d="M 307.878171 126.380313 
Q 291.054873 132.435021 275.809542 137.921818 
" clip-path="url(#p3709e53972)" style="fill: none; stroke: #808080; stroke-width: 1.5; stroke-linecap: round"/>
    <path d="M 280.250484 138.449107 
L 275.809542 137.921818 
L 278.895939 134.685438 
L 280.250484 138.449107 
z
" clip-path="url(#p3709e53972)" style="fill: #808080; stroke: #808080; stroke-width: 1.5; stroke-linecap: round"/>
   </g>
   <g id="patch_43">
    <path d="M 368.609407 247.536958 
Q 368.60941 360.401282 368.609413 471.588554 
" clip-path="url(#p3709e53972)" style="fill: none; stroke-dasharray: 5.55,2.4; stroke-dashoffset: 0; stroke: #808080; stroke-width: 1.5; stroke-linecap: round"/>
    <path d="M 370.609413 467.588554 
L 368.609413 471.588554 
L 366.609413 467.588554 
L 370.609413 467.588554 
z
" clip-path="url(#p3709e53972)" style="fill: #808080; stroke-dasharray: 5.55,2.4; stroke-dashoffset: 0; stroke: #808080; stroke-width: 1.5; stroke-linecap: round"/>
   </g>
   <g id="patch_44">
    <path d="M 360.754456 235.225443 
Q 294.942008 204.627843 230.65029 174.737263 
" clip-path="url(#p3709e53972)" style="fill: none; stroke: #808080; stroke-width: 1.5; stroke-linecap: round"/>
    <path d="M 233.434274 178.237181 
L 230.65029 174.737263 
L 235.120615 174.610026 
L 233.434274 178.237181 
z
" clip-path="url(#p3709e53972)" style="fill: #808080; stroke: #808080; stroke-width: 1.5; stroke-linecap: round"/>
   </g>
   <g id="patch_45">
    <path d="M 360.059196 237.488337 
Q 276.232836 223.870186 194.061826 210.520958 
" clip-path="url(#p3709e53972)" style="fill: none; stroke: #808080; stroke-width: 1.5; stroke-linecap: round"/>
    <path d="M 197.689355 213.136494 
L 194.061826 210.520958 
L 198.330773 209.188256 
L 197.689355 213.136494 
z
" clip-path="url(#p3709e53972)" style="fill: #808080; stroke: #808080; stroke-width: 1.5; stroke-linecap: round"/>
   </g>
   <g id="text_1">
    <g id="patch_46">
     <path d="M 360.770347 337.292209 
L 360.770349 383.509396 
Q 360.770349 386.509396 363.770349 386.509396 
L 373.448474 386.509396 
Q 376.448474 386.509396 376.448474 383.509396 
L 376.448472 337.292209 
Q 376.448472 334.292209 373.448472 334.292209 
L 363.770347 334.292209 
Q 360.770347 334.292209 360.770347 337.292209 
z
" clip-path="url(#p3709e53972)" style="fill: #ffffff; stroke: #ffffff; stroke-linejoin: miter"/>
    </g>
    <g clip-path="url(#p3709e53972)">
     <!-- ported to -->
     <g transform="translate(365.850035 337.292209) rotate(-270.000002) scale(0.1 -0.1)">
      <defs>
       <path id="DejaVuSans-70" d="M 1159 525 
L 1159 -1331 
L 581 -1331 
L 581 3500 
L 1159 3500 
L 1159 2969 
Q 1341 3281 1617 3432 
Q 1894 3584 2278 3584 
Q 2916 3584 3314 3078 
Q 3713 2572 3713 1747 
Q 3713 922 3314 415 
Q 2916 -91 2278 -91 
Q 1894 -91 1617 61 
Q 1341 213 1159 525 
z
M 3116 1747 
Q 3116 2381 2855 2742 
Q 2594 3103 2138 3103 
Q 1681 3103 1420 2742 
Q 1159 2381 1159 1747 
Q 1159 1113 1420 752 
Q 1681 391 2138 391 
Q 2594 391 2855 752 
Q 3116 1113 3116 1747 
z
" transform="scale(0.015625)"/>
       <path id="DejaVuSans-6f" d="M 1959 3097 
Q 1497 3097 1228 2736 
Q 959 2375 959 1747 
Q 959 1119 1226 758 
Q 1494 397 1959 397 
Q 2419 397 2687 759 
Q 2956 1122 2956 1747 
Q 2956 2369 2687 2733 
Q 2419 3097 1959 3097 
z
M 1959 3584 
Q 2709 3584 3137 3096 
Q 3566 2609 3566 1747 
Q 3566 888 3137 398 
Q 2709 -91 1959 -91 
Q 1206 -91 779 398 
Q 353 888 353 1747 
Q 353 2609 779 3096 
Q 1206 3584 1959 3584 
z
" transform="scale(0.015625)"/>
       <path id="DejaVuSans-72" d="M 2631 2963 
Q 2534 3019 2420 3045 
Q 2306 3072 2169 3072 
Q 1681 3072 1420 2755 
Q 1159 2438 1159 1844 
L 1159 0 
L 581 0 
L 581 3500 
L 1159 3500 
L 1159 2956 
Q 1341 3275 1631 3429 
Q 1922 3584 2338 3584 
Q 2397 3584 2469 3576 
Q 2541 3569 2628 3553 
L 2631 2963 
z
" transform="scale(0.015625)"/>
       <path id="DejaVuSans-74" d="M 1172 4494 
L 1172 3500 
L 2356 3500 
L 2356 3053 
L 1172 3053 
L 1172 1153 
Q 1172 725 1289 603 
Q 1406 481 1766 481 
L 2356 481 
L 2356 0 
L 1766 0 
Q 1100 0 847 248 
Q 594 497 594 1153 
L 594 3053 
L 172 3053 
L 172 3500 
L 594 3500 
L 594 4494 
L 1172 4494 
z
" transform="scale(0.015625)"/>
       <path id="DejaVuSans-65" d="M 3597 1894 
L 3597 1613 
L 953 1613 
Q 991 1019 1311 708 
Q 1631 397 2203 397 
Q 2534 397 2845 478 
Q 3156 559 3463 722 
L 3463 178 
Q 3153 47 2828 -22 
Q 2503 -91 2169 -91 
Q 1331 -91 842 396 
Q 353 884 353 1716 
Q 353 2575 817 3079 
Q 1281 3584 2069 3584 
Q 2775 3584 3186 3129 
Q 3597 2675 3597 1894 
z
M 3022 2063 
Q 3016 2534 2758 2815 
Q 2500 3097 2075 3097 
Q 1594 3097 1305 2825 
Q 1016 2553 972 2059 
L 3022 2063 
z
" transform="scale(0.015625)"/>
       <path id="DejaVuSans-64" d="M 2906 2969 
L 2906 4863 
L 3481 4863 
L 3481 0 
L 2906 0 
L 2906 525 
Q 2725 213 2448 61 
Q 2172 -91 1784 -91 
Q 1150 -91 751 415 
Q 353 922 353 1747 
Q 353 2572 751 3078 
Q 1150 3584 1784 3584 
Q 2172 3584 2448 3432 
Q 2725 3281 2906 2969 
z
M 947 1747 
Q 947 1113 1208 752 
Q 1469 391 1925 391 
Q 2381 391 2643 752 
Q 2906 1113 2906 1747 
Q 2906 2381 2643 2742 
Q 2381 3103 1925 3103 
Q 1469 3103 1208 2742 
Q 947 2381 947 1747 
z
" transform="scale(0.015625)"/>
       <path id="DejaVuSans-20" transform="scale(0.015625)"/>
      </defs>
      <use xlink:href="#DejaVuSans-70"/>
      <use xlink:href="#DejaVuSans-6f" x="63.476562"/>
      <use xlink:href="#DejaVuSans-72" x="124.658203"/>
      <use xlink:href="#DejaVuSans-74" x="165.771484"/>
      <use xlink:href="#DejaVuSans-65" x="204.980469"/>
      <use xlink:href="#DejaVuSans-64" x="266.503906"/>
      <use xlink:href="#DejaVuSans-20" x="329.980469"/>
      <use xlink:href="#DejaVuSans-74" x="361.767578"/>
      <use xlink:href="#DejaVuSans-6f" x="400.976562"/>
     </g>
    </g>
   </g>
   <g id="matplotlib.axis_1">
    <g id="xtick_1"/>
    <g id="xtick_2"/>
    <g id="xtick_3"/>
    <g id="xtick_4"/>
    <g id="xtick_5"/>
   </g>
   <g id="matplotlib.axis_2">
    <g id="ytick_1"/>
    <g id="ytick_2"/>
    <g id="ytick_3"/>
    <g id="ytick_4"/>
    <g id="ytick_5"/>
   </g>
   <g id="PathCollection_1">
    <defs>
     <path id="C0_0_e6dcb9c933" d="M 0 11.18034 
C 2.965061 11.18034 5.80908 10.002309 7.905694 7.905694 
C 10.002309 5.80908 11.18034 2.965061 11.18034 -0 
C 11.18034 -2.965061 10.002309 -5.80908 7.905694 -7.905694 
C 5.80908 -10.002309 2.965061 -11.18034 0 -11.18034 
C -2.965061 -11.18034 -5.80908 -10.002309 -7.905694 -7.905694 
C -10.002309 -5.80908 -11.18034 -2.965061 -11.18034 0 
C -11.18034 2.965061 -10.002309 5.80908 -7.905694 7.905694 
C -5.80908 10.002309 -2.965061 11.18034 0 11.18034 
z
"/>
    </defs>
    <g clip-path="url(#p3709e53972)">
     <use xlink:href="#C0_0_e6dcb9c933" x="486.761483" y="360.400781" style="fill: #add8e6; stroke: #add8e6"/>
    </g>
    <g clip-path="url(#p3709e53972)">
     <use xlink:href="#C0_0_e6dcb9c933" x="250.457342" y="360.400813" style="fill: #add8e6; stroke: #add8e6"/>
    </g>
    <g clip-path="url(#p3709e53972)">
     <use xlink:href="#C0_0_e6dcb9c933" x="368.609414" y="481.924229" style="fill: #add8e6; stroke: #add8e6"/>
    </g>
    <g clip-path="url(#p3709e53972)">
     <use xlink:href="#C0_0_e6dcb9c933" x="266.080849" y="579.378432" style="fill: #add8e6; stroke: #add8e6"/>
    </g>
    <g clip-path="url(#p3709e53972)">
     <use xlink:href="#C0_0_e6dcb9c933" x="421.192055" y="597.353962" style="fill: #add8e6; stroke: #add8e6"/>
    </g>
    <g clip-path="url(#p3709e53972)">
     <use xlink:href="#C0_0_e6dcb9c933" x="155.706742" y="465.854884" style="fill: #add8e6; stroke: #add8e6"/>
    </g>
    <g clip-path="url(#p3709e53972)">
     <use xlink:href="#C0_0_e6dcb9c933" x="368.609415" y="603.447656" style="fill: #add8e6; stroke: #add8e6"/>
    </g>
    <g clip-path="url(#p3709e53972)">
     <use xlink:href="#C0_0_e6dcb9c933" x="221.276234" y="550.422518" style="fill: #add8e6; stroke: #add8e6"/>
    </g>
    <g clip-path="url(#p3709e53972)">
     <use xlink:href="#C0_0_e6dcb9c933" x="553.35949" y="511.937964" style="fill: #90ee90; stroke: #90ee90"/>
    </g>
    <g clip-path="url(#p3709e53972)">
     <use xlink:href="#C0_0_e6dcb9c933" x="581.512082" y="465.854884" style="fill: #90ee90; stroke: #90ee90"/>
    </g>
    <g clip-path="url(#p3709e53972)">
     <use xlink:href="#C0_0_e6dcb9c933" x="598.988913" y="414.483793" style="fill: #90ee90; stroke: #90ee90"/>
    </g>
    <g clip-path="url(#p3709e53972)">
     <use xlink:href="#C0_0_e6dcb9c933" x="604.913553" y="360.40076" style="fill: #90ee90; stroke: #90ee90"/>
    </g>
    <g clip-path="url(#p3709e53972)">
     <use xlink:href="#C0_0_e6dcb9c933" x="553.359434" y="208.863569" style="fill: #90ee90; stroke: #90ee90"/>
    </g>
    <g clip-path="url(#p3709e53972)">
     <use xlink:href="#C0_0_e6dcb9c933" x="581.512096" y="254.94675" style="fill: #90ee90; stroke: #90ee90"/>
    </g>
    <g clip-path="url(#p3709e53972)">
     <use xlink:href="#C0_0_e6dcb9c933" x="138.229912" y="306.317775" style="fill: #ffa500; stroke: #ffa500"/>
    </g>
    <g clip-path="url(#p3709e53972)">
     <use xlink:href="#C0_0_e6dcb9c933" x="515.942619" y="170.379116" style="fill: #fa8072; stroke: #fa8072"/>
    </g>
    <g clip-path="url(#p3709e53972)">
     <use xlink:href="#C0_0_e6dcb9c933" x="471.137976" y="579.378432" style="fill: #add8e6; stroke: #add8e6"/>
    </g>
    <g clip-path="url(#p3709e53972)">
     <use xlink:href="#C0_0_e6dcb9c933" x="132.305272" y="360.400824" style="fill: #add8e6; stroke: #add8e6"/>
    </g>
    <g clip-path="url(#p3709e53972)">
     <use xlink:href="#C0_0_e6dcb9c933" x="183.859405" y="511.938051" style="fill: #add8e6; stroke: #add8e6"/>
    </g>
    <g clip-path="url(#p3709e53972)">
     <use xlink:href="#C0_0_e6dcb9c933" x="316.026777" y="597.353962" style="fill: #add8e6; stroke: #add8e6"/>
    </g>
    <g clip-path="url(#p3709e53972)">
     <use xlink:href="#C0_0_e6dcb9c933" x="471.137905" y="141.423144" style="fill: #fa8072; stroke: #fa8072"/>
    </g>
    <g clip-path="url(#p3709e53972)">
     <use xlink:href="#C0_0_e6dcb9c933" x="183.859433" y="208.863511" style="fill: #fa8072; stroke: #fa8072"/>
    </g>
    <g clip-path="url(#p3709e53972)">
     <use xlink:href="#C0_0_e6dcb9c933" x="266.080778" y="141.423202" style="fill: #fa8072; stroke: #fa8072"/>
    </g>
    <g clip-path="url(#p3709e53972)">
     <use xlink:href="#C0_0_e6dcb9c933" x="316.026696" y="123.447658" style="fill: #fa8072; stroke: #fa8072"/>
    </g>
    <g clip-path="url(#p3709e53972)">
     <use xlink:href="#C0_0_e6dcb9c933" x="368.609407" y="238.877376" style="fill: #fa8072; stroke: #fa8072"/>
    </g>
    <g clip-path="url(#p3709e53972)">
     <use xlink:href="#C0_0_e6dcb9c933" x="221.276248" y="170.379072" style="fill: #fa8072; stroke: #fa8072"/>
    </g>
   </g>
   <g id="patch_47">
    <path d="M 90 640.8 
L 90 86.4 
" style="fill: none; stroke: #000000; stroke-width: 0.8; stroke-linejoin: miter; stroke-linecap: square"/>
   </g>
   <g id="patch_48">
    <path d="M 648 640.8 
L 648 86.4 
" style="fill: none; stroke: #000000; stroke-width: 0.8; stroke-linejoin: miter; stroke-linecap: square"/>
   </g>
   <g id="patch_49">
    <path d="M 90 640.8 
L 648 640.8 
" style="fill: none; stroke: #000000; stroke-width: 0.8; stroke-linejoin: miter; stroke-linecap: square"/>
   </g>
   <g id="patch_50">
    <path d="M 90 86.4 
L 648 86.4 
" style="fill: none; stroke: #000000; stroke-width: 0.8; stroke-linejoin: miter; stroke-linecap: square"/>
   </g>
   <g id="text_2">
    <g clip-path="url(#p3709e53972)">
     <!-- PROJ -->
     <g transform="translate(473.135701 363.160156) scale(0.1 -0.1)">
      <defs>
       <path id="DejaVuSans-Bold-50" d="M 588 4666 
L 2584 4666 
Q 3475 4666 3951 4270 
Q 4428 3875 4428 3144 
Q 4428 2409 3951 2014 
Q 3475 1619 2584 1619 
L 1791 1619 
L 1791 0 
L 588 0 
L 588 4666 
z
M 1791 3794 
L 1791 2491 
L 2456 2491 
Q 2806 2491 2997 2661 
Q 3188 2831 3188 3144 
Q 3188 3456 2997 3625 
Q 2806 3794 2456 3794 
L 1791 3794 
z
" transform="scale(0.015625)"/>
       <path id="DejaVuSans-Bold-52" d="M 2297 2597 
Q 2675 2597 2839 2737 
Q 3003 2878 3003 3200 
Q 3003 3519 2839 3656 
Q 2675 3794 2297 3794 
L 1791 3794 
L 1791 2597 
L 2297 2597 
z
M 1791 1766 
L 1791 0 
L 588 0 
L 588 4666 
L 2425 4666 
Q 3347 4666 3776 4356 
Q 4206 4047 4206 3378 
Q 4206 2916 3982 2619 
Q 3759 2322 3309 2181 
Q 3556 2125 3751 1926 
Q 3947 1728 4147 1325 
L 4800 0 
L 3519 0 
L 2950 1159 
Q 2778 1509 2601 1637 
Q 2425 1766 2131 1766 
L 1791 1766 
z
" transform="scale(0.015625)"/>
       <path id="DejaVuSans-Bold-4f" d="M 2719 3878 
Q 2169 3878 1866 3472 
Q 1563 3066 1563 2328 
Q 1563 1594 1866 1187 
Q 2169 781 2719 781 
Q 3272 781 3575 1187 
Q 3878 1594 3878 2328 
Q 3878 3066 3575 3472 
Q 3272 3878 2719 3878 
z
M 2719 4750 
Q 3844 4750 4481 4106 
Q 5119 3463 5119 2328 
Q 5119 1197 4481 553 
Q 3844 -91 2719 -91 
Q 1597 -91 958 553 
Q 319 1197 319 2328 
Q 319 3463 958 4106 
Q 1597 4750 2719 4750 
z
" transform="scale(0.015625)"/>
       <path id="DejaVuSans-Bold-4a" d="M 588 4666 
L 1791 4666 
L 1791 453 
Q 1791 -419 1317 -850 
Q 844 -1281 -116 -1281 
L -359 -1281 
L -359 -372 
L -172 -372 
Q 203 -372 395 -162 
Q 588 47 588 453 
L 588 4666 
z
" transform="scale(0.015625)"/>
      </defs>
      <use xlink:href="#DejaVuSans-Bold-50"/>
      <use xlink:href="#DejaVuSans-Bold-52" x="73.291016"/>
      <use xlink:href="#DejaVuSans-Bold-4f" x="150.292969"/>
      <use xlink:href="#DejaVuSans-Bold-4a" x="235.302734"/>
     </g>
    </g>
   </g>
   <g id="text_3">
    <g clip-path="url(#p3709e53972)">
     <!-- GDAL -->
     <g transform="translate(235.147186 363.160188) scale(0.1 -0.1)">
      <defs>
       <path id="DejaVuSans-Bold-47" d="M 4781 347 
Q 4331 128 3847 18 
Q 3363 -91 2847 -91 
Q 1681 -91 1000 561 
Q 319 1213 319 2328 
Q 319 3456 1012 4103 
Q 1706 4750 2913 4750 
Q 3378 4750 3804 4662 
Q 4231 4575 4609 4403 
L 4609 3438 
Q 4219 3659 3833 3768 
Q 3447 3878 3059 3878 
Q 2341 3878 1952 3476 
Q 1563 3075 1563 2328 
Q 1563 1588 1938 1184 
Q 2313 781 3003 781 
Q 3191 781 3352 804 
Q 3513 828 3641 878 
L 3641 1784 
L 2906 1784 
L 2906 2591 
L 4781 2591 
L 4781 347 
z
" transform="scale(0.015625)"/>
       <path id="DejaVuSans-Bold-44" d="M 1791 3756 
L 1791 909 
L 2222 909 
Q 2959 909 3348 1275 
Q 3738 1641 3738 2338 
Q 3738 3031 3350 3393 
Q 2963 3756 2222 3756 
L 1791 3756 
z
M 588 4666 
L 1856 4666 
Q 2919 4666 3439 4514 
Q 3959 4363 4331 4000 
Q 4659 3684 4818 3271 
Q 4978 2859 4978 2338 
Q 4978 1809 4818 1395 
Q 4659 981 4331 666 
Q 3956 303 3431 151 
Q 2906 0 1856 0 
L 588 0 
L 588 4666 
z
" transform="scale(0.015625)"/>
       <path id="DejaVuSans-Bold-41" d="M 3419 850 
L 1538 850 
L 1241 0 
L 31 0 
L 1759 4666 
L 3194 4666 
L 4922 0 
L 3713 0 
L 3419 850 
z
M 1838 1716 
L 3116 1716 
L 2478 3572 
L 1838 1716 
z
" transform="scale(0.015625)"/>
       <path id="DejaVuSans-Bold-4c" d="M 588 4666 
L 1791 4666 
L 1791 909 
L 3903 909 
L 3903 0 
L 588 0 
L 588 4666 
z
" transform="scale(0.015625)"/>
      </defs>
      <use xlink:href="#DejaVuSans-Bold-47"/>
      <use xlink:href="#DejaVuSans-Bold-44" x="82.080078"/>
      <use xlink:href="#DejaVuSans-Bold-41" x="165.087891"/>
      <use xlink:href="#DejaVuSans-Bold-4c" x="242.480469"/>
     </g>
    </g>
   </g>
   <g id="text_4">
    <g clip-path="url(#p3709e53972)">
     <!-- GEOS -->
     <g transform="translate(353.23832 484.683604) scale(0.1 -0.1)">
      <defs>
       <path id="DejaVuSans-Bold-45" d="M 588 4666 
L 3834 4666 
L 3834 3756 
L 1791 3756 
L 1791 2888 
L 3713 2888 
L 3713 1978 
L 1791 1978 
L 1791 909 
L 3903 909 
L 3903 0 
L 588 0 
L 588 4666 
z
" transform="scale(0.015625)"/>
       <path id="DejaVuSans-Bold-53" d="M 3834 4519 
L 3834 3531 
Q 3450 3703 3084 3790 
Q 2719 3878 2394 3878 
Q 1963 3878 1756 3759 
Q 1550 3641 1550 3391 
Q 1550 3203 1689 3098 
Q 1828 2994 2194 2919 
L 2706 2816 
Q 3484 2659 3812 2340 
Q 4141 2022 4141 1434 
Q 4141 663 3683 286 
Q 3225 -91 2284 -91 
Q 1841 -91 1394 -6 
Q 947 78 500 244 
L 500 1259 
Q 947 1022 1364 901 
Q 1781 781 2169 781 
Q 2563 781 2772 912 
Q 2981 1044 2981 1288 
Q 2981 1506 2839 1625 
Q 2697 1744 2272 1838 
L 1806 1941 
Q 1106 2091 782 2419 
Q 459 2747 459 3303 
Q 459 4000 909 4375 
Q 1359 4750 2203 4750 
Q 2588 4750 2994 4692 
Q 3400 4634 3834 4519 
z
" transform="scale(0.015625)"/>
      </defs>
      <use xlink:href="#DejaVuSans-Bold-47"/>
      <use xlink:href="#DejaVuSans-Bold-45" x="82.080078"/>
      <use xlink:href="#DejaVuSans-Bold-4f" x="150.390625"/>
      <use xlink:href="#DejaVuSans-Bold-53" x="235.400391"/>
     </g>
    </g>
   </g>
   <g id="text_5">
    <g clip-path="url(#p3709e53972)">
     <!-- PDAL -->
     <g transform="translate(251.209755 582.137807) scale(0.1 -0.1)">
      <use xlink:href="#DejaVuSans-Bold-50"/>
      <use xlink:href="#DejaVuSans-Bold-44" x="73.291016"/>
      <use xlink:href="#DejaVuSans-Bold-41" x="156.298828"/>
      <use xlink:href="#DejaVuSans-Bold-4c" x="233.691406"/>
     </g>
    </g>
   </g>
   <g id="text_6">
    <g clip-path="url(#p3709e53972)">
     <!-- QGIS -->
     <g transform="translate(407.37643 600.113337) scale(0.1 -0.1)">
      <defs>
       <path id="DejaVuSans-Bold-51" d="M 2847 -84 
L 2753 -84 
Q 1600 -84 959 553 
Q 319 1191 319 2328 
Q 319 3463 958 4106 
Q 1597 4750 2719 4750 
Q 3853 4750 4486 4112 
Q 5119 3475 5119 2328 
Q 5119 1541 4783 972 
Q 4447 403 3816 116 
L 4756 -934 
L 3609 -934 
L 2847 -84 
z
M 2719 3878 
Q 2169 3878 1866 3472 
Q 1563 3066 1563 2328 
Q 1563 1578 1859 1179 
Q 2156 781 2719 781 
Q 3272 781 3575 1187 
Q 3878 1594 3878 2328 
Q 3878 3066 3575 3472 
Q 3272 3878 2719 3878 
z
" transform="scale(0.015625)"/>
       <path id="DejaVuSans-Bold-49" d="M 588 4666 
L 1791 4666 
L 1791 0 
L 588 0 
L 588 4666 
z
" transform="scale(0.015625)"/>
      </defs>
      <use xlink:href="#DejaVuSans-Bold-51"/>
      <use xlink:href="#DejaVuSans-Bold-47" x="85.009766"/>
      <use xlink:href="#DejaVuSans-Bold-49" x="167.089844"/>
      <use xlink:href="#DejaVuSans-Bold-53" x="204.296875"/>
     </g>
    </g>
   </g>
   <g id="text_7">
    <g clip-path="url(#p3709e53972)">
     <!-- MDAL -->
     <g transform="translate(139.524711 468.614259) scale(0.1 -0.1)">
      <defs>
       <path id="DejaVuSans-Bold-4d" d="M 588 4666 
L 2119 4666 
L 3181 2169 
L 4250 4666 
L 5778 4666 
L 5778 0 
L 4641 0 
L 4641 3413 
L 3566 897 
L 2803 897 
L 1728 3413 
L 1728 0 
L 588 0 
L 588 4666 
z
" transform="scale(0.015625)"/>
      </defs>
      <use xlink:href="#DejaVuSans-Bold-4d"/>
      <use xlink:href="#DejaVuSans-Bold-44" x="99.511719"/>
      <use xlink:href="#DejaVuSans-Bold-41" x="182.519531"/>
      <use xlink:href="#DejaVuSans-Bold-4c" x="259.912109"/>
     </g>
    </g>
   </g>
   <g id="text_8">
    <g clip-path="url(#p3709e53972)">
     <!-- MapServer -->
     <g transform="translate(338.10629 606.207031) scale(0.1 -0.1)">
      <defs>
       <path id="DejaVuSans-Bold-61" d="M 2106 1575 
Q 1756 1575 1579 1456 
Q 1403 1338 1403 1106 
Q 1403 894 1545 773 
Q 1688 653 1941 653 
Q 2256 653 2472 879 
Q 2688 1106 2688 1447 
L 2688 1575 
L 2106 1575 
z
M 3816 1997 
L 3816 0 
L 2688 0 
L 2688 519 
Q 2463 200 2181 54 
Q 1900 -91 1497 -91 
Q 953 -91 614 226 
Q 275 544 275 1050 
Q 275 1666 698 1953 
Q 1122 2241 2028 2241 
L 2688 2241 
L 2688 2328 
Q 2688 2594 2478 2717 
Q 2269 2841 1825 2841 
Q 1466 2841 1156 2769 
Q 847 2697 581 2553 
L 581 3406 
Q 941 3494 1303 3539 
Q 1666 3584 2028 3584 
Q 2975 3584 3395 3211 
Q 3816 2838 3816 1997 
z
" transform="scale(0.015625)"/>
       <path id="DejaVuSans-Bold-70" d="M 1656 506 
L 1656 -1331 
L 538 -1331 
L 538 3500 
L 1656 3500 
L 1656 2988 
Q 1888 3294 2169 3439 
Q 2450 3584 2816 3584 
Q 3463 3584 3878 3070 
Q 4294 2556 4294 1747 
Q 4294 938 3878 423 
Q 3463 -91 2816 -91 
Q 2450 -91 2169 54 
Q 1888 200 1656 506 
z
M 2400 2772 
Q 2041 2772 1848 2508 
Q 1656 2244 1656 1747 
Q 1656 1250 1848 986 
Q 2041 722 2400 722 
Q 2759 722 2948 984 
Q 3138 1247 3138 1747 
Q 3138 2247 2948 2509 
Q 2759 2772 2400 2772 
z
" transform="scale(0.015625)"/>
       <path id="DejaVuSans-Bold-65" d="M 4031 1759 
L 4031 1441 
L 1416 1441 
Q 1456 1047 1700 850 
Q 1944 653 2381 653 
Q 2734 653 3104 758 
Q 3475 863 3866 1075 
L 3866 213 
Q 3469 63 3072 -14 
Q 2675 -91 2278 -91 
Q 1328 -91 801 392 
Q 275 875 275 1747 
Q 275 2603 792 3093 
Q 1309 3584 2216 3584 
Q 3041 3584 3536 3087 
Q 4031 2591 4031 1759 
z
M 2881 2131 
Q 2881 2450 2695 2645 
Q 2509 2841 2209 2841 
Q 1884 2841 1681 2658 
Q 1478 2475 1428 2131 
L 2881 2131 
z
" transform="scale(0.015625)"/>
       <path id="DejaVuSans-Bold-72" d="M 3138 2547 
Q 2991 2616 2845 2648 
Q 2700 2681 2553 2681 
Q 2122 2681 1889 2404 
Q 1656 2128 1656 1613 
L 1656 0 
L 538 0 
L 538 3500 
L 1656 3500 
L 1656 2925 
Q 1872 3269 2151 3426 
Q 2431 3584 2822 3584 
Q 2878 3584 2943 3579 
Q 3009 3575 3134 3559 
L 3138 2547 
z
" transform="scale(0.015625)"/>
       <path id="DejaVuSans-Bold-76" d="M 97 3500 
L 1216 3500 
L 2088 1081 
L 2956 3500 
L 4078 3500 
L 2700 0 
L 1472 0 
L 97 3500 
z
" transform="scale(0.015625)"/>
      </defs>
      <use xlink:href="#DejaVuSans-Bold-4d"/>
      <use xlink:href="#DejaVuSans-Bold-61" x="99.511719"/>
      <use xlink:href="#DejaVuSans-Bold-70" x="166.992188"/>
      <use xlink:href="#DejaVuSans-Bold-53" x="238.574219"/>
      <use xlink:href="#DejaVuSans-Bold-65" x="310.595703"/>
      <use xlink:href="#DejaVuSans-Bold-72" x="378.417969"/>
      <use xlink:href="#DejaVuSans-Bold-76" x="427.734375"/>
      <use xlink:href="#DejaVuSans-Bold-65" x="492.919922"/>
      <use xlink:href="#DejaVuSans-Bold-72" x="560.742188"/>
     </g>
    </g>
   </g>
   <g id="text_9">
    <g clip-path="url(#p3709e53972)">
     <!-- GRASS GIS -->
     <g transform="translate(191.170765 553.181893) scale(0.1 -0.1)">
      <defs>
       <path id="DejaVuSans-Bold-20" transform="scale(0.015625)"/>
      </defs>
      <use xlink:href="#DejaVuSans-Bold-47"/>
      <use xlink:href="#DejaVuSans-Bold-52" x="82.080078"/>
      <use xlink:href="#DejaVuSans-Bold-41" x="159.082031"/>
      <use xlink:href="#DejaVuSans-Bold-53" x="236.474609"/>
      <use xlink:href="#DejaVuSans-Bold-53" x="303.996094"/>
      <use xlink:href="#DejaVuSans-Bold-20" x="376.017578"/>
      <use xlink:href="#DejaVuSans-Bold-47" x="410.832031"/>
      <use xlink:href="#DejaVuSans-Bold-49" x="492.912109"/>
      <use xlink:href="#DejaVuSans-Bold-53" x="530.119141"/>
     </g>
    </g>
   </g>
   <g id="text_10">
    <g clip-path="url(#p3709e53972)">
     <!-- GeoDjango -->
     <g transform="translate(522.616521 514.658276) scale(0.1 -0.1)">
      <defs>
       <path id="DejaVuSans-Bold-6f" d="M 2203 2784 
Q 1831 2784 1636 2517 
Q 1441 2250 1441 1747 
Q 1441 1244 1636 976 
Q 1831 709 2203 709 
Q 2569 709 2762 976 
Q 2956 1244 2956 1747 
Q 2956 2250 2762 2517 
Q 2569 2784 2203 2784 
z
M 2203 3584 
Q 3106 3584 3614 3096 
Q 4122 2609 4122 1747 
Q 4122 884 3614 396 
Q 3106 -91 2203 -91 
Q 1297 -91 786 396 
Q 275 884 275 1747 
Q 275 2609 786 3096 
Q 1297 3584 2203 3584 
z
" transform="scale(0.015625)"/>
       <path id="DejaVuSans-Bold-6a" d="M 538 3500 
L 1656 3500 
L 1656 63 
Q 1656 -641 1318 -1011 
Q 981 -1381 341 -1381 
L -213 -1381 
L -213 -647 
L -19 -647 
Q 300 -647 419 -503 
Q 538 -359 538 63 
L 538 3500 
z
M 538 4863 
L 1656 4863 
L 1656 3950 
L 538 3950 
L 538 4863 
z
" transform="scale(0.015625)"/>
       <path id="DejaVuSans-Bold-6e" d="M 4056 2131 
L 4056 0 
L 2931 0 
L 2931 347 
L 2931 1631 
Q 2931 2084 2911 2256 
Q 2891 2428 2841 2509 
Q 2775 2619 2662 2680 
Q 2550 2741 2406 2741 
Q 2056 2741 1856 2470 
Q 1656 2200 1656 1722 
L 1656 0 
L 538 0 
L 538 3500 
L 1656 3500 
L 1656 2988 
Q 1909 3294 2193 3439 
Q 2478 3584 2822 3584 
Q 3428 3584 3742 3212 
Q 4056 2841 4056 2131 
z
" transform="scale(0.015625)"/>
       <path id="DejaVuSans-Bold-67" d="M 2919 594 
Q 2688 288 2409 144 
Q 2131 0 1766 0 
Q 1125 0 706 504 
Q 288 1009 288 1791 
Q 288 2575 706 3076 
Q 1125 3578 1766 3578 
Q 2131 3578 2409 3434 
Q 2688 3291 2919 2981 
L 2919 3500 
L 4044 3500 
L 4044 353 
Q 4044 -491 3511 -936 
Q 2978 -1381 1966 -1381 
Q 1638 -1381 1331 -1331 
Q 1025 -1281 716 -1178 
L 716 -306 
Q 1009 -475 1290 -558 
Q 1572 -641 1856 -641 
Q 2406 -641 2662 -400 
Q 2919 -159 2919 353 
L 2919 594 
z
M 2181 2772 
Q 1834 2772 1640 2515 
Q 1447 2259 1447 1791 
Q 1447 1309 1634 1061 
Q 1822 813 2181 813 
Q 2531 813 2725 1069 
Q 2919 1325 2919 1791 
Q 2919 2259 2725 2515 
Q 2531 2772 2181 2772 
z
" transform="scale(0.015625)"/>
      </defs>
      <use xlink:href="#DejaVuSans-Bold-47"/>
      <use xlink:href="#DejaVuSans-Bold-65" x="82.080078"/>
      <use xlink:href="#DejaVuSans-Bold-6f" x="149.902344"/>
      <use xlink:href="#DejaVuSans-Bold-44" x="218.603516"/>
      <use xlink:href="#DejaVuSans-Bold-6a" x="301.611328"/>
      <use xlink:href="#DejaVuSans-Bold-61" x="335.888672"/>
      <use xlink:href="#DejaVuSans-Bold-6e" x="403.369141"/>
      <use xlink:href="#DejaVuSans-Bold-67" x="474.560547"/>
      <use xlink:href="#DejaVuSans-Bold-6f" x="546.142578"/>
     </g>
    </g>
   </g>
   <g id="text_11">
    <g clip-path="url(#p3709e53972)">
     <!-- rasterio -->
     <g transform="translate(559.300363 468.614259) scale(0.1 -0.1)">
      <defs>
       <path id="DejaVuSans-Bold-73" d="M 3272 3391 
L 3272 2541 
Q 2913 2691 2578 2766 
Q 2244 2841 1947 2841 
Q 1628 2841 1473 2761 
Q 1319 2681 1319 2516 
Q 1319 2381 1436 2309 
Q 1553 2238 1856 2203 
L 2053 2175 
Q 2913 2066 3209 1816 
Q 3506 1566 3506 1031 
Q 3506 472 3093 190 
Q 2681 -91 1863 -91 
Q 1516 -91 1145 -36 
Q 775 19 384 128 
L 384 978 
Q 719 816 1070 734 
Q 1422 653 1784 653 
Q 2113 653 2278 743 
Q 2444 834 2444 1013 
Q 2444 1163 2330 1236 
Q 2216 1309 1875 1350 
L 1678 1375 
Q 931 1469 631 1722 
Q 331 1975 331 2491 
Q 331 3047 712 3315 
Q 1094 3584 1881 3584 
Q 2191 3584 2531 3537 
Q 2872 3491 3272 3391 
z
" transform="scale(0.015625)"/>
       <path id="DejaVuSans-Bold-74" d="M 1759 4494 
L 1759 3500 
L 2913 3500 
L 2913 2700 
L 1759 2700 
L 1759 1216 
Q 1759 972 1856 886 
Q 1953 800 2241 800 
L 2816 800 
L 2816 0 
L 1856 0 
Q 1194 0 917 276 
Q 641 553 641 1216 
L 641 2700 
L 84 2700 
L 84 3500 
L 641 3500 
L 641 4494 
L 1759 4494 
z
" transform="scale(0.015625)"/>
       <path id="DejaVuSans-Bold-69" d="M 538 3500 
L 1656 3500 
L 1656 0 
L 538 0 
L 538 3500 
z
M 538 4863 
L 1656 4863 
L 1656 3950 
L 538 3950 
L 538 4863 
z
" transform="scale(0.015625)"/>
      </defs>
      <use xlink:href="#DejaVuSans-Bold-72"/>
      <use xlink:href="#DejaVuSans-Bold-61" x="49.316406"/>
      <use xlink:href="#DejaVuSans-Bold-73" x="116.796875"/>
      <use xlink:href="#DejaVuSans-Bold-74" x="176.318359"/>
      <use xlink:href="#DejaVuSans-Bold-65" x="224.121094"/>
      <use xlink:href="#DejaVuSans-Bold-72" x="291.943359"/>
      <use xlink:href="#DejaVuSans-Bold-69" x="341.259766"/>
      <use xlink:href="#DejaVuSans-Bold-6f" x="375.537109"/>
     </g>
    </g>
   </g>
   <g id="text_12">
    <g clip-path="url(#p3709e53972)">
     <!-- fiona -->
     <g transform="translate(584.7311 417.243168) scale(0.1 -0.1)">
      <defs>
       <path id="DejaVuSans-Bold-66" d="M 2841 4863 
L 2841 4128 
L 2222 4128 
Q 1984 4128 1890 4042 
Q 1797 3956 1797 3744 
L 1797 3500 
L 2753 3500 
L 2753 2700 
L 1797 2700 
L 1797 0 
L 678 0 
L 678 2700 
L 122 2700 
L 122 3500 
L 678 3500 
L 678 3744 
Q 678 4316 997 4589 
Q 1316 4863 1984 4863 
L 2841 4863 
z
" transform="scale(0.015625)"/>
      </defs>
      <use xlink:href="#DejaVuSans-Bold-66"/>
      <use xlink:href="#DejaVuSans-Bold-69" x="43.505859"/>
      <use xlink:href="#DejaVuSans-Bold-6f" x="77.783203"/>
      <use xlink:href="#DejaVuSans-Bold-6e" x="146.484375"/>
      <use xlink:href="#DejaVuSans-Bold-61" x="217.675781"/>
     </g>
    </g>
   </g>
   <g id="text_13">
    <g clip-path="url(#p3709e53972)">
     <!-- pyogrio -->
     <g transform="translate(583.446366 363.121073) scale(0.1 -0.1)">
      <defs>
       <path id="DejaVuSans-Bold-79" d="M 78 3500 
L 1197 3500 
L 2138 1125 
L 2938 3500 
L 4056 3500 
L 2584 -331 
Q 2363 -916 2067 -1148 
Q 1772 -1381 1288 -1381 
L 641 -1381 
L 641 -647 
L 991 -647 
Q 1275 -647 1404 -556 
Q 1534 -466 1606 -231 
L 1638 -134 
L 78 3500 
z
" transform="scale(0.015625)"/>
      </defs>
      <use xlink:href="#DejaVuSans-Bold-70"/>
      <use xlink:href="#DejaVuSans-Bold-79" x="71.582031"/>
      <use xlink:href="#DejaVuSans-Bold-6f" x="136.767578"/>
      <use xlink:href="#DejaVuSans-Bold-67" x="205.46875"/>
      <use xlink:href="#DejaVuSans-Bold-72" x="277.050781"/>
      <use xlink:href="#DejaVuSans-Bold-69" x="326.367188"/>
      <use xlink:href="#DejaVuSans-Bold-6f" x="360.644531"/>
     </g>
    </g>
   </g>
   <g id="text_14">
    <g clip-path="url(#p3709e53972)">
     <!-- GeoPandas -->
     <g transform="translate(522.032871 211.622944) scale(0.1 -0.1)">
      <defs>
       <path id="DejaVuSans-Bold-64" d="M 2919 2988 
L 2919 4863 
L 4044 4863 
L 4044 0 
L 2919 0 
L 2919 506 
Q 2688 197 2409 53 
Q 2131 -91 1766 -91 
Q 1119 -91 703 423 
Q 288 938 288 1747 
Q 288 2556 703 3070 
Q 1119 3584 1766 3584 
Q 2128 3584 2408 3439 
Q 2688 3294 2919 2988 
z
M 2181 722 
Q 2541 722 2730 984 
Q 2919 1247 2919 1747 
Q 2919 2247 2730 2509 
Q 2541 2772 2181 2772 
Q 1825 2772 1636 2509 
Q 1447 2247 1447 1747 
Q 1447 1247 1636 984 
Q 1825 722 2181 722 
z
" transform="scale(0.015625)"/>
      </defs>
      <use xlink:href="#DejaVuSans-Bold-47"/>
      <use xlink:href="#DejaVuSans-Bold-65" x="82.080078"/>
      <use xlink:href="#DejaVuSans-Bold-6f" x="149.902344"/>
      <use xlink:href="#DejaVuSans-Bold-50" x="218.603516"/>
      <use xlink:href="#DejaVuSans-Bold-61" x="289.269531"/>
      <use xlink:href="#DejaVuSans-Bold-6e" x="356.75"/>
      <use xlink:href="#DejaVuSans-Bold-64" x="427.941406"/>
      <use xlink:href="#DejaVuSans-Bold-61" x="499.523438"/>
      <use xlink:href="#DejaVuSans-Bold-73" x="567.003906"/>
     </g>
    </g>
   </g>
   <g id="text_15">
    <g clip-path="url(#p3709e53972)">
     <!-- shapely -->
     <g transform="translate(559.658971 257.667062) scale(0.1 -0.1)">
      <defs>
       <path id="DejaVuSans-Bold-68" d="M 4056 2131 
L 4056 0 
L 2931 0 
L 2931 347 
L 2931 1625 
Q 2931 2084 2911 2256 
Q 2891 2428 2841 2509 
Q 2775 2619 2662 2680 
Q 2550 2741 2406 2741 
Q 2056 2741 1856 2470 
Q 1656 2200 1656 1722 
L 1656 0 
L 538 0 
L 538 4863 
L 1656 4863 
L 1656 2988 
Q 1909 3294 2193 3439 
Q 2478 3584 2822 3584 
Q 3428 3584 3742 3212 
Q 4056 2841 4056 2131 
z
" transform="scale(0.015625)"/>
       <path id="DejaVuSans-Bold-6c" d="M 538 4863 
L 1656 4863 
L 1656 0 
L 538 0 
L 538 4863 
z
" transform="scale(0.015625)"/>
      </defs>
      <use xlink:href="#DejaVuSans-Bold-73"/>
      <use xlink:href="#DejaVuSans-Bold-68" x="59.521484"/>
      <use xlink:href="#DejaVuSans-Bold-61" x="130.712891"/>
      <use xlink:href="#DejaVuSans-Bold-70" x="198.193359"/>
      <use xlink:href="#DejaVuSans-Bold-65" x="269.775391"/>
      <use xlink:href="#DejaVuSans-Bold-6c" x="337.597656"/>
      <use xlink:href="#DejaVuSans-Bold-79" x="371.875"/>
     </g>
    </g>
   </g>
   <g id="text_16">
    <g clip-path="url(#p3709e53972)">
     <!-- r-spatial -->
     <g transform="translate(114.568193 309.07715) scale(0.1 -0.1)">
      <defs>
       <path id="DejaVuSans-Bold-2d" d="M 347 2297 
L 2309 2297 
L 2309 1388 
L 347 1388 
L 347 2297 
z
" transform="scale(0.015625)"/>
      </defs>
      <use xlink:href="#DejaVuSans-Bold-72"/>
      <use xlink:href="#DejaVuSans-Bold-2d" x="49.316406"/>
      <use xlink:href="#DejaVuSans-Bold-73" x="90.820312"/>
      <use xlink:href="#DejaVuSans-Bold-70" x="150.341797"/>
      <use xlink:href="#DejaVuSans-Bold-61" x="221.923828"/>
      <use xlink:href="#DejaVuSans-Bold-74" x="289.404297"/>
      <use xlink:href="#DejaVuSans-Bold-69" x="337.207031"/>
      <use xlink:href="#DejaVuSans-Bold-61" x="371.484375"/>
      <use xlink:href="#DejaVuSans-Bold-6c" x="438.964844"/>
     </g>
    </g>
   </g>
   <g id="text_17">
    <g clip-path="url(#p3709e53972)">
     <!-- GeoNode -->
     <g transform="translate(490.422307 173.138491) scale(0.1 -0.1)">
      <defs>
       <path id="DejaVuSans-Bold-4e" d="M 588 4666 
L 1931 4666 
L 3628 1466 
L 3628 4666 
L 4769 4666 
L 4769 0 
L 3425 0 
L 1728 3200 
L 1728 0 
L 588 0 
L 588 4666 
z
" transform="scale(0.015625)"/>
      </defs>
      <use xlink:href="#DejaVuSans-Bold-47"/>
      <use xlink:href="#DejaVuSans-Bold-65" x="82.080078"/>
      <use xlink:href="#DejaVuSans-Bold-6f" x="149.902344"/>
      <use xlink:href="#DejaVuSans-Bold-4e" x="218.603516"/>
      <use xlink:href="#DejaVuSans-Bold-6f" x="302.294922"/>
      <use xlink:href="#DejaVuSans-Bold-64" x="370.996094"/>
      <use xlink:href="#DejaVuSans-Bold-65" x="442.578125"/>
     </g>
    </g>
   </g>
   <g id="text_18">
    <g clip-path="url(#p3709e53972)">
     <!-- PostGIS -->
     <g transform="translate(449.107507 582.137807) scale(0.1 -0.1)">
      <use xlink:href="#DejaVuSans-Bold-50"/>
      <use xlink:href="#DejaVuSans-Bold-6f" x="73.291016"/>
      <use xlink:href="#DejaVuSans-Bold-73" x="141.992188"/>
      <use xlink:href="#DejaVuSans-Bold-74" x="201.513672"/>
      <use xlink:href="#DejaVuSans-Bold-47" x="249.316406"/>
      <use xlink:href="#DejaVuSans-Bold-49" x="331.396484"/>
      <use xlink:href="#DejaVuSans-Bold-53" x="368.603516"/>
     </g>
    </g>
   </g>
   <g id="text_19">
    <g clip-path="url(#p3709e53972)">
     <!-- PostGISRaster -->
     <g transform="translate(91.827928 363.160199) scale(0.1 -0.1)">
      <use xlink:href="#DejaVuSans-Bold-50"/>
      <use xlink:href="#DejaVuSans-Bold-6f" x="73.291016"/>
      <use xlink:href="#DejaVuSans-Bold-73" x="141.992188"/>
      <use xlink:href="#DejaVuSans-Bold-74" x="201.513672"/>
      <use xlink:href="#DejaVuSans-Bold-47" x="249.316406"/>
      <use xlink:href="#DejaVuSans-Bold-49" x="331.396484"/>
      <use xlink:href="#DejaVuSans-Bold-53" x="368.603516"/>
      <use xlink:href="#DejaVuSans-Bold-52" x="440.625"/>
      <use xlink:href="#DejaVuSans-Bold-61" x="517.626953"/>
      <use xlink:href="#DejaVuSans-Bold-73" x="585.107422"/>
      <use xlink:href="#DejaVuSans-Bold-74" x="644.628906"/>
      <use xlink:href="#DejaVuSans-Bold-65" x="692.431641"/>
      <use xlink:href="#DejaVuSans-Bold-72" x="760.253906"/>
     </g>
    </g>
   </g>
   <g id="text_20">
    <g clip-path="url(#p3709e53972)">
     <!-- PgRouting -->
     <g transform="translate(154.528936 514.658363) scale(0.1 -0.1)">
      <defs>
       <path id="DejaVuSans-Bold-75" d="M 500 1363 
L 500 3500 
L 1625 3500 
L 1625 3150 
Q 1625 2866 1622 2436 
Q 1619 2006 1619 1863 
Q 1619 1441 1641 1255 
Q 1663 1069 1716 984 
Q 1784 875 1895 815 
Q 2006 756 2150 756 
Q 2500 756 2700 1025 
Q 2900 1294 2900 1772 
L 2900 3500 
L 4019 3500 
L 4019 0 
L 2900 0 
L 2900 506 
Q 2647 200 2364 54 
Q 2081 -91 1741 -91 
Q 1134 -91 817 281 
Q 500 653 500 1363 
z
" transform="scale(0.015625)"/>
      </defs>
      <use xlink:href="#DejaVuSans-Bold-50"/>
      <use xlink:href="#DejaVuSans-Bold-67" x="73.291016"/>
      <use xlink:href="#DejaVuSans-Bold-52" x="144.873047"/>
      <use xlink:href="#DejaVuSans-Bold-6f" x="221.875"/>
      <use xlink:href="#DejaVuSans-Bold-75" x="290.576172"/>
      <use xlink:href="#DejaVuSans-Bold-74" x="361.767578"/>
      <use xlink:href="#DejaVuSans-Bold-69" x="409.570312"/>
      <use xlink:href="#DejaVuSans-Bold-6e" x="443.847656"/>
      <use xlink:href="#DejaVuSans-Bold-67" x="515.039062"/>
     </g>
    </g>
   </g>
   <g id="text_21">
    <g clip-path="url(#p3709e53972)">
     <!-- Valhalla -->
     <g transform="translate(293.608027 600.113337) scale(0.1 -0.1)">
      <defs>
       <path id="DejaVuSans-Bold-56" d="M 31 4666 
L 1241 4666 
L 2478 1222 
L 3713 4666 
L 4922 4666 
L 3194 0 
L 1759 0 
L 31 4666 
z
" transform="scale(0.015625)"/>
      </defs>
      <use xlink:href="#DejaVuSans-Bold-56"/>
      <use xlink:href="#DejaVuSans-Bold-61" x="71.892578"/>
      <use xlink:href="#DejaVuSans-Bold-6c" x="139.373047"/>
      <use xlink:href="#DejaVuSans-Bold-68" x="173.650391"/>
      <use xlink:href="#DejaVuSans-Bold-61" x="244.841797"/>
      <use xlink:href="#DejaVuSans-Bold-6c" x="312.322266"/>
      <use xlink:href="#DejaVuSans-Bold-6c" x="346.599609"/>
      <use xlink:href="#DejaVuSans-Bold-61" x="380.876953"/>
     </g>
    </g>
   </g>
   <g id="text_22">
    <g clip-path="url(#p3709e53972)">
     <!-- imageio-ext-gdal -->
     <g transform="translate(423.317593 144.143456) scale(0.1 -0.1)">
      <defs>
       <path id="DejaVuSans-Bold-6d" d="M 3781 2919 
Q 3994 3244 4286 3414 
Q 4578 3584 4928 3584 
Q 5531 3584 5847 3212 
Q 6163 2841 6163 2131 
L 6163 0 
L 5038 0 
L 5038 1825 
Q 5041 1866 5042 1909 
Q 5044 1953 5044 2034 
Q 5044 2406 4934 2573 
Q 4825 2741 4581 2741 
Q 4263 2741 4089 2478 
Q 3916 2216 3909 1719 
L 3909 0 
L 2784 0 
L 2784 1825 
Q 2784 2406 2684 2573 
Q 2584 2741 2328 2741 
Q 2006 2741 1831 2477 
Q 1656 2213 1656 1722 
L 1656 0 
L 531 0 
L 531 3500 
L 1656 3500 
L 1656 2988 
Q 1863 3284 2130 3434 
Q 2397 3584 2719 3584 
Q 3081 3584 3359 3409 
Q 3638 3234 3781 2919 
z
" transform="scale(0.015625)"/>
       <path id="DejaVuSans-Bold-78" d="M 1422 1791 
L 159 3500 
L 1344 3500 
L 2059 2463 
L 2784 3500 
L 3969 3500 
L 2706 1797 
L 4031 0 
L 2847 0 
L 2059 1106 
L 1281 0 
L 97 0 
L 1422 1791 
z
" transform="scale(0.015625)"/>
      </defs>
      <use xlink:href="#DejaVuSans-Bold-69"/>
      <use xlink:href="#DejaVuSans-Bold-6d" x="34.277344"/>
      <use xlink:href="#DejaVuSans-Bold-61" x="138.476562"/>
      <use xlink:href="#DejaVuSans-Bold-67" x="205.957031"/>
      <use xlink:href="#DejaVuSans-Bold-65" x="277.539062"/>
      <use xlink:href="#DejaVuSans-Bold-69" x="345.361328"/>
      <use xlink:href="#DejaVuSans-Bold-6f" x="379.638672"/>
      <use xlink:href="#DejaVuSans-Bold-2d" x="448.339844"/>
      <use xlink:href="#DejaVuSans-Bold-65" x="489.84375"/>
      <use xlink:href="#DejaVuSans-Bold-78" x="557.666016"/>
      <use xlink:href="#DejaVuSans-Bold-74" x="622.167969"/>
      <use xlink:href="#DejaVuSans-Bold-2d" x="669.970703"/>
      <use xlink:href="#DejaVuSans-Bold-67" x="711.474609"/>
      <use xlink:href="#DejaVuSans-Bold-64" x="783.056641"/>
      <use xlink:href="#DejaVuSans-Bold-61" x="854.638672"/>
      <use xlink:href="#DejaVuSans-Bold-6c" x="922.119141"/>
     </g>
    </g>
   </g>
   <g id="text_23">
    <g clip-path="url(#p3709e53972)">
     <!-- GeoTools -->
     <g transform="translate(158.620371 211.622886) scale(0.1 -0.1)">
      <defs>
       <path id="DejaVuSans-Bold-54" d="M 31 4666 
L 4331 4666 
L 4331 3756 
L 2784 3756 
L 2784 0 
L 1581 0 
L 1581 3756 
L 31 3756 
L 31 4666 
z
" transform="scale(0.015625)"/>
      </defs>
      <use xlink:href="#DejaVuSans-Bold-47"/>
      <use xlink:href="#DejaVuSans-Bold-65" x="82.080078"/>
      <use xlink:href="#DejaVuSans-Bold-6f" x="149.902344"/>
      <use xlink:href="#DejaVuSans-Bold-54" x="218.603516"/>
      <use xlink:href="#DejaVuSans-Bold-6f" x="273.566406"/>
      <use xlink:href="#DejaVuSans-Bold-6f" x="342.267578"/>
      <use xlink:href="#DejaVuSans-Bold-6c" x="410.96875"/>
      <use xlink:href="#DejaVuSans-Bold-73" x="445.246094"/>
     </g>
    </g>
   </g>
   <g id="text_24">
    <g clip-path="url(#p3709e53972)">
     <!-- GeoServer -->
     <g transform="translate(236.576091 144.182577) scale(0.1 -0.1)">
      <use xlink:href="#DejaVuSans-Bold-47"/>
      <use xlink:href="#DejaVuSans-Bold-65" x="82.080078"/>
      <use xlink:href="#DejaVuSans-Bold-6f" x="149.902344"/>
      <use xlink:href="#DejaVuSans-Bold-53" x="218.603516"/>
      <use xlink:href="#DejaVuSans-Bold-65" x="290.625"/>
      <use xlink:href="#DejaVuSans-Bold-72" x="358.447266"/>
      <use xlink:href="#DejaVuSans-Bold-76" x="407.763672"/>
      <use xlink:href="#DejaVuSans-Bold-65" x="472.949219"/>
      <use xlink:href="#DejaVuSans-Bold-72" x="540.771484"/>
     </g>
    </g>
   </g>
   <g id="text_25">
    <g clip-path="url(#p3709e53972)">
     <!-- geoserver.gdal -->
     <g transform="translate(274.239196 126.16797) scale(0.1 -0.1)">
      <defs>
       <path id="DejaVuSans-Bold-2e" d="M 653 1209 
L 1778 1209 
L 1778 0 
L 653 0 
L 653 1209 
z
" transform="scale(0.015625)"/>
      </defs>
      <use xlink:href="#DejaVuSans-Bold-67"/>
      <use xlink:href="#DejaVuSans-Bold-65" x="71.582031"/>
      <use xlink:href="#DejaVuSans-Bold-6f" x="139.404297"/>
      <use xlink:href="#DejaVuSans-Bold-73" x="208.105469"/>
      <use xlink:href="#DejaVuSans-Bold-65" x="267.626953"/>
      <use xlink:href="#DejaVuSans-Bold-72" x="335.449219"/>
      <use xlink:href="#DejaVuSans-Bold-76" x="384.765625"/>
      <use xlink:href="#DejaVuSans-Bold-65" x="449.951172"/>
      <use xlink:href="#DejaVuSans-Bold-72" x="517.773438"/>
      <use xlink:href="#DejaVuSans-Bold-2e" x="552.839844"/>
      <use xlink:href="#DejaVuSans-Bold-67" x="590.828125"/>
      <use xlink:href="#DejaVuSans-Bold-64" x="662.410156"/>
      <use xlink:href="#DejaVuSans-Bold-61" x="733.992188"/>
      <use xlink:href="#DejaVuSans-Bold-6c" x="801.472656"/>
     </g>
    </g>
   </g>
   <g id="text_26">
    <g clip-path="url(#p3709e53972)">
     <!-- JTS -->
     <g transform="translate(359.737532 241.636751) scale(0.1 -0.1)">
      <use xlink:href="#DejaVuSans-Bold-4a"/>
      <use xlink:href="#DejaVuSans-Bold-54" x="37.207031"/>
      <use xlink:href="#DejaVuSans-Bold-53" x="105.419922"/>
     </g>
    </g>
   </g>
   <g id="text_27">
    <g clip-path="url(#p3709e53972)">
     <!-- Sedona -->
     <g transform="translate(200.336404 173.138447) scale(0.1 -0.1)">
      <use xlink:href="#DejaVuSans-Bold-53"/>
      <use xlink:href="#DejaVuSans-Bold-65" x="72.021484"/>
      <use xlink:href="#DejaVuSans-Bold-64" x="139.84375"/>
      <use xlink:href="#DejaVuSans-Bold-6f" x="211.425781"/>
      <use xlink:href="#DejaVuSans-Bold-6e" x="280.126953"/>
      <use xlink:href="#DejaVuSans-Bold-61" x="351.318359"/>
     </g>
    </g>
   </g>
   <g id="text_28">
    <!-- Dependencies between FOSS4G stack -->
    <g transform="translate(254.444063 80.4) scale(0.12 -0.12)">
     <defs>
      <path id="DejaVuSans-44" d="M 1259 4147 
L 1259 519 
L 2022 519 
Q 2988 519 3436 956 
Q 3884 1394 3884 2338 
Q 3884 3275 3436 3711 
Q 2988 4147 2022 4147 
L 1259 4147 
z
M 628 4666 
L 1925 4666 
Q 3281 4666 3915 4102 
Q 4550 3538 4550 2338 
Q 4550 1131 3912 565 
Q 3275 0 1925 0 
L 628 0 
L 628 4666 
z
" transform="scale(0.015625)"/>
      <path id="DejaVuSans-6e" d="M 3513 2113 
L 3513 0 
L 2938 0 
L 2938 2094 
Q 2938 2591 2744 2837 
Q 2550 3084 2163 3084 
Q 1697 3084 1428 2787 
Q 1159 2491 1159 1978 
L 1159 0 
L 581 0 
L 581 3500 
L 1159 3500 
L 1159 2956 
Q 1366 3272 1645 3428 
Q 1925 3584 2291 3584 
Q 2894 3584 3203 3211 
Q 3513 2838 3513 2113 
z
" transform="scale(0.015625)"/>
      <path id="DejaVuSans-63" d="M 3122 3366 
L 3122 2828 
Q 2878 2963 2633 3030 
Q 2388 3097 2138 3097 
Q 1578 3097 1268 2742 
Q 959 2388 959 1747 
Q 959 1106 1268 751 
Q 1578 397 2138 397 
Q 2388 397 2633 464 
Q 2878 531 3122 666 
L 3122 134 
Q 2881 22 2623 -34 
Q 2366 -91 2075 -91 
Q 1284 -91 818 406 
Q 353 903 353 1747 
Q 353 2603 823 3093 
Q 1294 3584 2113 3584 
Q 2378 3584 2631 3529 
Q 2884 3475 3122 3366 
z
" transform="scale(0.015625)"/>
      <path id="DejaVuSans-69" d="M 603 3500 
L 1178 3500 
L 1178 0 
L 603 0 
L 603 3500 
z
M 603 4863 
L 1178 4863 
L 1178 4134 
L 603 4134 
L 603 4863 
z
" transform="scale(0.015625)"/>
      <path id="DejaVuSans-73" d="M 2834 3397 
L 2834 2853 
Q 2591 2978 2328 3040 
Q 2066 3103 1784 3103 
Q 1356 3103 1142 2972 
Q 928 2841 928 2578 
Q 928 2378 1081 2264 
Q 1234 2150 1697 2047 
L 1894 2003 
Q 2506 1872 2764 1633 
Q 3022 1394 3022 966 
Q 3022 478 2636 193 
Q 2250 -91 1575 -91 
Q 1294 -91 989 -36 
Q 684 19 347 128 
L 347 722 
Q 666 556 975 473 
Q 1284 391 1588 391 
Q 1994 391 2212 530 
Q 2431 669 2431 922 
Q 2431 1156 2273 1281 
Q 2116 1406 1581 1522 
L 1381 1569 
Q 847 1681 609 1914 
Q 372 2147 372 2553 
Q 372 3047 722 3315 
Q 1072 3584 1716 3584 
Q 2034 3584 2315 3537 
Q 2597 3491 2834 3397 
z
" transform="scale(0.015625)"/>
      <path id="DejaVuSans-62" d="M 3116 1747 
Q 3116 2381 2855 2742 
Q 2594 3103 2138 3103 
Q 1681 3103 1420 2742 
Q 1159 2381 1159 1747 
Q 1159 1113 1420 752 
Q 1681 391 2138 391 
Q 2594 391 2855 752 
Q 3116 1113 3116 1747 
z
M 1159 2969 
Q 1341 3281 1617 3432 
Q 1894 3584 2278 3584 
Q 2916 3584 3314 3078 
Q 3713 2572 3713 1747 
Q 3713 922 3314 415 
Q 2916 -91 2278 -91 
Q 1894 -91 1617 61 
Q 1341 213 1159 525 
L 1159 0 
L 581 0 
L 581 4863 
L 1159 4863 
L 1159 2969 
z
" transform="scale(0.015625)"/>
      <path id="DejaVuSans-77" d="M 269 3500 
L 844 3500 
L 1563 769 
L 2278 3500 
L 2956 3500 
L 3675 769 
L 4391 3500 
L 4966 3500 
L 4050 0 
L 3372 0 
L 2619 2869 
L 1863 0 
L 1184 0 
L 269 3500 
z
" transform="scale(0.015625)"/>
      <path id="DejaVuSans-46" d="M 628 4666 
L 3309 4666 
L 3309 4134 
L 1259 4134 
L 1259 2759 
L 3109 2759 
L 3109 2228 
L 1259 2228 
L 1259 0 
L 628 0 
L 628 4666 
z
" transform="scale(0.015625)"/>
      <path id="DejaVuSans-4f" d="M 2522 4238 
Q 1834 4238 1429 3725 
Q 1025 3213 1025 2328 
Q 1025 1447 1429 934 
Q 1834 422 2522 422 
Q 3209 422 3611 934 
Q 4013 1447 4013 2328 
Q 4013 3213 3611 3725 
Q 3209 4238 2522 4238 
z
M 2522 4750 
Q 3503 4750 4090 4092 
Q 4678 3434 4678 2328 
Q 4678 1225 4090 567 
Q 3503 -91 2522 -91 
Q 1538 -91 948 565 
Q 359 1222 359 2328 
Q 359 3434 948 4092 
Q 1538 4750 2522 4750 
z
" transform="scale(0.015625)"/>
      <path id="DejaVuSans-53" d="M 3425 4513 
L 3425 3897 
Q 3066 4069 2747 4153 
Q 2428 4238 2131 4238 
Q 1616 4238 1336 4038 
Q 1056 3838 1056 3469 
Q 1056 3159 1242 3001 
Q 1428 2844 1947 2747 
L 2328 2669 
Q 3034 2534 3370 2195 
Q 3706 1856 3706 1288 
Q 3706 609 3251 259 
Q 2797 -91 1919 -91 
Q 1588 -91 1214 -16 
Q 841 59 441 206 
L 441 856 
Q 825 641 1194 531 
Q 1563 422 1919 422 
Q 2459 422 2753 634 
Q 3047 847 3047 1241 
Q 3047 1584 2836 1778 
Q 2625 1972 2144 2069 
L 1759 2144 
Q 1053 2284 737 2584 
Q 422 2884 422 3419 
Q 422 4038 858 4394 
Q 1294 4750 2059 4750 
Q 2388 4750 2728 4690 
Q 3069 4631 3425 4513 
z
" transform="scale(0.015625)"/>
      <path id="DejaVuSans-34" d="M 2419 4116 
L 825 1625 
L 2419 1625 
L 2419 4116 
z
M 2253 4666 
L 3047 4666 
L 3047 1625 
L 3713 1625 
L 3713 1100 
L 3047 1100 
L 3047 0 
L 2419 0 
L 2419 1100 
L 313 1100 
L 313 1709 
L 2253 4666 
z
" transform="scale(0.015625)"/>
      <path id="DejaVuSans-47" d="M 3809 666 
L 3809 1919 
L 2778 1919 
L 2778 2438 
L 4434 2438 
L 4434 434 
Q 4069 175 3628 42 
Q 3188 -91 2688 -91 
Q 1594 -91 976 548 
Q 359 1188 359 2328 
Q 359 3472 976 4111 
Q 1594 4750 2688 4750 
Q 3144 4750 3555 4637 
Q 3966 4525 4313 4306 
L 4313 3634 
Q 3963 3931 3569 4081 
Q 3175 4231 2741 4231 
Q 1884 4231 1454 3753 
Q 1025 3275 1025 2328 
Q 1025 1384 1454 906 
Q 1884 428 2741 428 
Q 3075 428 3337 486 
Q 3600 544 3809 666 
z
" transform="scale(0.015625)"/>
      <path id="DejaVuSans-61" d="M 2194 1759 
Q 1497 1759 1228 1600 
Q 959 1441 959 1056 
Q 959 750 1161 570 
Q 1363 391 1709 391 
Q 2188 391 2477 730 
Q 2766 1069 2766 1631 
L 2766 1759 
L 2194 1759 
z
M 3341 1997 
L 3341 0 
L 2766 0 
L 2766 531 
Q 2569 213 2275 61 
Q 1981 -91 1556 -91 
Q 1019 -91 701 211 
Q 384 513 384 1019 
Q 384 1609 779 1909 
Q 1175 2209 1959 2209 
L 2766 2209 
L 2766 2266 
Q 2766 2663 2505 2880 
Q 2244 3097 1772 3097 
Q 1472 3097 1187 3025 
Q 903 2953 641 2809 
L 641 3341 
Q 956 3463 1253 3523 
Q 1550 3584 1831 3584 
Q 2591 3584 2966 3190 
Q 3341 2797 3341 1997 
z
" transform="scale(0.015625)"/>
      <path id="DejaVuSans-6b" d="M 581 4863 
L 1159 4863 
L 1159 1991 
L 2875 3500 
L 3609 3500 
L 1753 1863 
L 3688 0 
L 2938 0 
L 1159 1709 
L 1159 0 
L 581 0 
L 581 4863 
z
" transform="scale(0.015625)"/>
     </defs>
     <use xlink:href="#DejaVuSans-44"/>
     <use xlink:href="#DejaVuSans-65" x="77.001953"/>
     <use xlink:href="#DejaVuSans-70" x="138.525391"/>
     <use xlink:href="#DejaVuSans-65" x="202.001953"/>
     <use xlink:href="#DejaVuSans-6e" x="263.525391"/>
     <use xlink:href="#DejaVuSans-64" x="326.904297"/>
     <use xlink:href="#DejaVuSans-65" x="390.380859"/>
     <use xlink:href="#DejaVuSans-6e" x="451.904297"/>
     <use xlink:href="#DejaVuSans-63" x="515.283203"/>
     <use xlink:href="#DejaVuSans-69" x="570.263672"/>
     <use xlink:href="#DejaVuSans-65" x="598.046875"/>
     <use xlink:href="#DejaVuSans-73" x="659.570312"/>
     <use xlink:href="#DejaVuSans-20" x="711.669922"/>
     <use xlink:href="#DejaVuSans-62" x="743.457031"/>
     <use xlink:href="#DejaVuSans-65" x="806.933594"/>
     <use xlink:href="#DejaVuSans-74" x="868.457031"/>
     <use xlink:href="#DejaVuSans-77" x="907.666016"/>
     <use xlink:href="#DejaVuSans-65" x="989.453125"/>
     <use xlink:href="#DejaVuSans-65" x="1050.976562"/>
     <use xlink:href="#DejaVuSans-6e" x="1112.5"/>
     <use xlink:href="#DejaVuSans-20" x="1175.878906"/>
     <use xlink:href="#DejaVuSans-46" x="1207.666016"/>
     <use xlink:href="#DejaVuSans-4f" x="1265.185547"/>
     <use xlink:href="#DejaVuSans-53" x="1343.896484"/>
     <use xlink:href="#DejaVuSans-53" x="1407.373047"/>
     <use xlink:href="#DejaVuSans-34" x="1470.849609"/>
     <use xlink:href="#DejaVuSans-47" x="1534.472656"/>
     <use xlink:href="#DejaVuSans-20" x="1611.962891"/>
     <use xlink:href="#DejaVuSans-73" x="1643.75"/>
     <use xlink:href="#DejaVuSans-74" x="1695.849609"/>
     <use xlink:href="#DejaVuSans-61" x="1735.058594"/>
     <use xlink:href="#DejaVuSans-63" x="1796.337891"/>
     <use xlink:href="#DejaVuSans-6b" x="1851.318359"/>
    </g>
   </g>
  </g>
 </g>
 <defs>
  <clipPath id="p3709e53972">
   <rect x="90" y="86.4" width="558" height="554.4"/>
  </clipPath>
 </defs>
</svg>
