<?xml version="1.0" encoding="utf-8" standalone="no"?>
<!DOCTYPE svg PUBLIC "-//W3C//DTD SVG 1.1//EN"
  "http://www.w3.org/Graphics/SVG/1.1/DTD/svg11.dtd">
<svg xmlns:xlink="http://www.w3.org/1999/xlink" width="720pt" height="720pt" viewBox="0 0 720 720" xmlns="http://www.w3.org/2000/svg" version="1.1">
 <metadata>
  <rdf:RDF xmlns:dc="http://purl.org/dc/elements/1.1/" xmlns:cc="http://creativecommons.org/ns#" xmlns:rdf="http://www.w3.org/1999/02/22-rdf-syntax-ns#">
   <cc:Work>
    <dc:type rdf:resource="http://purl.org/dc/dcmitype/StillImage"/>
    <dc:date>2024-10-20T20:32:33.452382</dc:date>
    <dc:format>image/svg+xml</dc:format>
    <dc:creator>
     <cc:Agent>
      <dc:title>Matplotlib v3.6.0, https://matplotlib.org/</dc:title>
     </cc:Agent>
    </dc:creator>
   </cc:Work>
  </rdf:RDF>
 </metadata>
 <defs>
  <style type="text/css">*{stroke-linejoin: round; stroke-linecap: butt}</style>
 </defs>
 <g id="figure_1">
  <g id="patch_1">
   <path d="M 0 720 
L 720 720 
L 720 0 
L 0 0 
z
" style="fill: #ffffff"/>
  </g>
  <g id="axes_1">
   <g id="patch_2">
    <path d="M 486.181907 427.03194 
Q 425.847555 322.736029 366.073049 219.407885 
" clip-path="url(#pcbe335c819)" style="fill: none; stroke: #808080; stroke-linecap: round"/>
    <path d="M 366.616589 228.335626 
L 366.073049 219.407885 
L 373.541366 224.329698 
L 366.616589 228.335626 
z
" clip-path="url(#pcbe335c819)" style="fill: #808080; stroke: #808080; stroke-linecap: round"/>
   </g>
   <g id="patch_3">
    <path d="M 490.422013 443.186172 
Q 489.437577 532.130571 488.465515 619.957006 
" clip-path="url(#pcbe335c819)" style="fill: none; stroke: #808080; stroke-linecap: round"/>
    <path d="M 492.553808 612.001765 
L 488.465515 619.957006 
L 484.554298 611.913226 
L 492.553808 612.001765 
z
" clip-path="url(#pcbe335c819)" style="fill: #808080; stroke: #808080; stroke-linecap: round"/>
   </g>
   <g id="patch_4">
    <path d="M 485.7249 441.744129 
Q 416.469015 546.025474 347.831664 649.375467 
" clip-path="url(#pcbe335c819)" style="fill: none; stroke: #808080; stroke-linecap: round"/>
    <path d="M 355.589638 644.924194 
L 347.831664 649.375467 
L 348.92543 640.498324 
L 355.589638 644.924194 
z
" clip-path="url(#pcbe335c819)" style="fill: #808080; stroke: #808080; stroke-linecap: round"/>
   </g>
   <g id="patch_5">
    <path d="M 487.758203 442.738144 
Q 453.832827 543.678428 420.263636 643.558933 
" clip-path="url(#pcbe335c819)" style="fill: none; stroke: #808080; stroke-linecap: round"/>
    <path d="M 426.60387 637.250096 
L 420.263636 643.558933 
L 419.020707 634.701443 
L 426.60387 637.250096 
z
" clip-path="url(#pcbe335c819)" style="fill: #808080; stroke: #808080; stroke-linecap: round"/>
   </g>
   <g id="patch_6">
    <path d="M 483.132507 439.048744 
Q 345.822937 523.11419 209.466889 606.59586 
" clip-path="url(#pcbe335c819)" style="fill: none; stroke: #808080; stroke-linecap: round"/>
    <path d="M 218.378322 605.830112 
L 209.466889 606.59586 
L 214.20115 599.007265 
L 218.378322 605.830112 
z
" clip-path="url(#pcbe335c819)" style="fill: #808080; stroke: #808080; stroke-linecap: round"/>
   </g>
   <g id="patch_7">
    <path d="M 359.369933 219.417335 
Q 315.025767 427.234046 270.914917 633.957338 
" clip-path="url(#pcbe335c819)" style="fill: none; stroke: #808080; stroke-linecap: round"/>
    <path d="M 276.496316 626.968204 
L 270.914917 633.957338 
L 268.672449 625.298739 
L 276.496316 626.968204 
z
" clip-path="url(#pcbe335c819)" style="fill: #808080; stroke: #808080; stroke-linecap: round"/>
   </g>
   <g id="patch_8">
    <path d="M 363.69365 219.230504 
Q 424.76762 420.341789 485.516712 620.383282 
" clip-path="url(#pcbe335c819)" style="fill: none; stroke: #808080; stroke-linecap: round"/>
    <path d="M 487.019485 611.566158 
L 485.516712 620.383282 
L 479.364677 613.890789 
L 487.019485 611.566158 
z
" clip-path="url(#pcbe335c819)" style="fill: #808080; stroke: #808080; stroke-linecap: round"/>
   </g>
   <g id="patch_9">
    <path d="M 356.630847 218.319359 
Q 252.30652 387.508071 148.569001 555.745123 
" clip-path="url(#pcbe335c819)" style="fill: none; stroke: #808080; stroke-linecap: round"/>
    <path d="M 156.172618 551.035027 
L 148.569001 555.745123 
L 149.363095 546.836172 
L 156.172618 551.035027 
z
" clip-path="url(#pcbe335c819)" style="fill: #808080; stroke: #808080; stroke-linecap: round"/>
   </g>
   <g id="patch_10">
    <path d="M 360.814341 219.596166 
Q 351.799933 434.233361 342.832439 647.753507 
" clip-path="url(#pcbe335c819)" style="fill: none; stroke: #808080; stroke-linecap: round"/>
    <path d="M 347.164606 639.928399 
L 342.832439 647.753507 
L 339.171653 639.592708 
L 347.164606 639.928399 
z
" clip-path="url(#pcbe335c819)" style="fill: #808080; stroke: #808080; stroke-linecap: round"/>
   </g>
   <g id="patch_11">
    <path d="M 362.26613 219.538988 
Q 389.163027 431.887976 415.919433 643.127793 
" clip-path="url(#pcbe335c819)" style="fill: none; stroke: #808080; stroke-linecap: round"/>
    <path d="M 418.88245 634.688567 
L 415.919433 643.127793 
L 410.945862 635.693844 
L 418.88245 634.688567 
z
" clip-path="url(#pcbe335c819)" style="fill: #808080; stroke: #808080; stroke-linecap: round"/>
   </g>
   <g id="patch_12">
    <path d="M 367.515151 216.851137 
Q 500.038836 340.343224 631.744571 463.073105 
" clip-path="url(#pcbe335c819)" style="fill: none; stroke: #808080; stroke-linecap: round"/>
    <path d="M 628.618749 454.692816 
L 631.744571 463.073105 
L 623.164847 460.54559 
L 628.618749 454.692816 
z
" clip-path="url(#pcbe335c819)" style="fill: #808080; stroke: #808080; stroke-linecap: round"/>
   </g>
   <g id="patch_13">
    <path d="M 368.509809 215.557907 
Q 509.34946 304.15442 649.24275 392.155616 
" clip-path="url(#pcbe335c819)" style="fill: none; stroke: #808080; stroke-linecap: round"/>
    <path d="M 644.601017 384.510073 
L 649.24275 392.155616 
L 640.341276 391.281676 
L 644.601017 384.510073 
z
" clip-path="url(#pcbe335c819)" style="fill: #808080; stroke: #808080; stroke-linecap: round"/>
   </g>
   <g id="patch_14">
    <path d="M 369.285304 214.001315 
Q 509.350113 266.791693 648.368728 319.187761 
" clip-path="url(#pcbe335c819)" style="fill: none; stroke: #808080; stroke-linecap: round"/>
    <path d="M 642.293506 312.623336 
L 648.368728 319.187761 
L 639.472055 320.109284 
L 642.293506 312.623336 
z
" clip-path="url(#pcbe335c819)" style="fill: #808080; stroke: #808080; stroke-linecap: round"/>
   </g>
   <g id="patch_15">
    <path d="M 369.750545 212.159088 
Q 500.039899 230.602313 629.222255 248.888837 
" clip-path="url(#pcbe335c819)" style="fill: none; stroke: #808080; stroke-linecap: round"/>
    <path d="M 621.861857 243.807052 
L 629.222255 248.888837 
L 620.740588 251.728084 
L 621.861857 243.807052 
z
" clip-path="url(#pcbe335c819)" style="fill: #808080; stroke: #808080; stroke-linecap: round"/>
   </g>
   <g id="patch_16">
    <path d="M 354.319598 216.236186 
Q 216.519033 322.542331 79.603699 428.165564 
" clip-path="url(#pcbe335c819)" style="fill: none; stroke: #808080; stroke-linecap: round"/>
    <path d="M 88.381148 426.446152 
L 79.603699 428.165564 
L 83.494639 420.111957 
L 88.381148 426.446152 
z
" clip-path="url(#pcbe335c819)" style="fill: #808080; stroke: #808080; stroke-linecap: round"/>
   </g>
   <g id="patch_17">
    <path d="M 360.091861 202.350562 
Q 351.799738 136.711227 343.647741 72.18111 
" clip-path="url(#pcbe335c819)" style="fill: none; stroke: #808080; stroke-linecap: round"/>
    <path d="M 340.681941 80.619358 
L 343.647741 72.18111 
L 348.618859 79.616698 
L 340.681941 80.619358 
z
" clip-path="url(#pcbe335c819)" style="fill: #808080; stroke: #808080; stroke-linecap: round"/>
   </g>
   <g id="patch_18">
    <path d="M 352.781762 208.824216 
Q 252.307876 183.43821 152.917959 158.326083 
" clip-path="url(#pcbe335c819)" style="fill: none; stroke: #808080; stroke-linecap: round"/>
    <path d="M 159.694357 164.163928 
L 152.917959 158.326083 
L 161.654074 156.407672 
L 159.694357 164.163928 
z
" clip-path="url(#pcbe335c819)" style="fill: #808080; stroke: #808080; stroke-linecap: round"/>
   </g>
   <g id="patch_19">
    <path d="M 236.173446 427.032 
Q 296.507775 322.73606 356.282258 219.407887 
" clip-path="url(#pcbe335c819)" style="fill: none; stroke: #808080; stroke-linecap: round"/>
    <path d="M 348.813943 224.329703 
L 356.282258 219.407887 
L 355.738721 228.335629 
L 348.813943 224.329703 
z
" clip-path="url(#pcbe335c819)" style="fill: #808080; stroke: #808080; stroke-linecap: round"/>
   </g>
   <g id="patch_20">
    <path d="M 238.730377 439.772682 
Q 360.098579 532.13303 480.577071 623.816314 
" clip-path="url(#pcbe335c819)" style="fill: none; stroke: #808080; stroke-linecap: round"/>
    <path d="M 476.633156 615.788517 
L 480.577071 623.816314 
L 471.788484 622.154768 
L 476.633156 615.788517 
z
" clip-path="url(#pcbe335c819)" style="fill: #808080; stroke: #808080; stroke-linecap: round"/>
   </g>
   <g id="patch_21">
    <path d="M 235.686438 442.288606 
Q 287.130076 546.024374 338.076993 648.758509 
" clip-path="url(#pcbe335c819)" style="fill: none; stroke: #808080; stroke-linecap: round"/>
    <path d="M 338.106304 639.814286 
L 338.076993 648.758509 
L 330.9392 643.368526 
L 338.106304 639.814286 
z
" clip-path="url(#pcbe335c819)" style="fill: #808080; stroke: #808080; stroke-linecap: round"/>
   </g>
   <g id="patch_22">
    <path d="M 240.468086 435.273864 
Q 435.369219 452.134252 629.156479 468.898283 
" clip-path="url(#pcbe335c819)" style="fill: none; stroke: #808080; stroke-linecap: round"/>
    <path d="M 621.530988 464.223682 
L 629.156479 468.898283 
L 620.841504 472.193915 
L 621.530988 464.223682 
z
" clip-path="url(#pcbe335c819)" style="fill: #808080; stroke: #808080; stroke-linecap: round"/>
   </g>
   <g id="patch_23">
    <path d="M 238.109213 428.559845 
Q 391.705641 282.415825 544.492094 137.04248 
" clip-path="url(#pcbe335c819)" style="fill: none; stroke: #808080; stroke-linecap: round"/>
    <path d="M 535.939133 139.65913 
L 544.492094 137.04248 
L 541.453637 145.454839 
L 535.939133 139.65913 
z
" clip-path="url(#pcbe335c819)" style="fill: #808080; stroke: #808080; stroke-linecap: round"/>
   </g>
   <g id="patch_24">
    <path d="M 225.49332 428.6316 
Q 151.851289 360.196014 79.028248 292.521515 
" clip-path="url(#pcbe335c819)" style="fill: none; stroke: #808080; stroke-linecap: round"/>
    <path d="M 82.165513 300.897527 
L 79.028248 292.521515 
L 87.611416 295.03731 
L 82.165513 300.897527 
z
" clip-path="url(#pcbe335c819)" style="fill: #808080; stroke: #808080; stroke-linecap: round"/>
   </g>
   <g id="patch_25">
    <path d="M 230.358126 443.062102 
Q 216.482384 523.114196 202.797589 602.064682 
" clip-path="url(#pcbe335c819)" style="fill: none; stroke: #808080; stroke-linecap: round"/>
    <path d="M 208.105119 594.865367 
L 202.797589 602.064682 
L 200.222655 593.499069 
L 208.105119 594.865367 
z
" clip-path="url(#pcbe335c819)" style="fill: #808080; stroke: #808080; stroke-linecap: round"/>
   </g>
   <g id="patch_26">
    <path d="M 223.911761 431.039477 
Q 147.157709 397.263327 71.426989 363.937501 
" clip-path="url(#pcbe335c819)" style="fill: none; stroke: #808080; stroke-linecap: round"/>
    <path d="M 77.138226 370.820942 
L 71.426989 363.937501 
L 80.360484 363.498576 
L 77.138226 370.820942 
z
" clip-path="url(#pcbe335c819)" style="fill: #808080; stroke: #808080; stroke-linecap: round"/>
   </g>
   <g id="patch_27">
    <path d="M 277.518629 642.975659 
Q 378.615719 636.62772 478.596972 630.349845 
" clip-path="url(#pcbe335c819)" style="fill: none; stroke: #808080; stroke-linecap: round"/>
    <path d="M 470.362028 626.859044 
L 478.596972 630.349845 
L 470.863364 634.84332 
L 470.362028 626.859044 
z
" clip-path="url(#pcbe335c819)" style="fill: #808080; stroke: #808080; stroke-linecap: round"/>
   </g>
   <g id="patch_28">
    <path d="M 151.943763 565.689357 
Q 315.896325 596.903245 478.75058 627.908034 
" clip-path="url(#pcbe335c819)" style="fill: none; stroke: #808080; stroke-linecap: round"/>
    <path d="M 471.639836 622.482418 
L 478.75058 627.908034 
L 470.14364 630.34126 
L 471.639836 622.482418 
z
" clip-path="url(#pcbe335c819)" style="fill: #808080; stroke: #808080; stroke-linecap: round"/>
   </g>
   <g id="patch_29">
    <path d="M 632.966927 243.952839 
Q 563.628787 170.260922 495.056796 97.383261 
" clip-path="url(#pcbe335c819)" style="fill: none; stroke: #808080; stroke-linecap: round"/>
    <path d="M 497.625745 105.950671 
L 495.056796 97.383261 
L 503.452093 100.468548 
L 497.625745 105.950671 
z
" clip-path="url(#pcbe335c819)" style="fill: #808080; stroke: #808080; stroke-linecap: round"/>
   </g>
   <g id="patch_30">
    <path d="M 544.255512 125.667124 
Q 519.965462 110.282612 496.619935 95.496328 
" clip-path="url(#pcbe335c819)" style="fill: none; stroke: #808080; stroke-linecap: round"/>
    <path d="M 501.238096 103.156132 
L 496.619935 95.496328 
L 505.518675 96.397682 
L 501.238096 103.156132 
z
" clip-path="url(#pcbe335c819)" style="fill: #808080; stroke: #808080; stroke-linecap: round"/>
   </g>
   <g id="patch_31">
    <path d="M 543.735454 126.621336 
Q 484.360917 98.736946 425.998368 71.327822 
" clip-path="url(#pcbe335c819)" style="fill: none; stroke: #808080; stroke-linecap: round"/>
    <path d="M 431.53921 78.349152 
L 425.998368 71.327822 
L 434.939937 71.107946 
L 431.53921 78.349152 
z
" clip-path="url(#pcbe335c819)" style="fill: #808080; stroke: #808080; stroke-linecap: round"/>
   </g>
   <g id="patch_32">
    <path d="M 196.028493 604.697846 
Q 136.495197 522.919025 77.619914 442.044095 
" clip-path="url(#pcbe335c819)" style="fill: none; stroke: #808080; stroke-linecap: round"/>
    <path d="M 79.094419 450.86599 
L 77.619914 442.044095 
L 85.562133 446.157627 
L 79.094419 450.86599 
z
" clip-path="url(#pcbe335c819)" style="fill: #808080; stroke: #808080; stroke-linecap: round"/>
   </g>
   <g id="patch_33">
    <path d="M 195.189857 605.391602 
Q 150.275865 557.657453 106.128022 510.737561 
" clip-path="url(#pcbe335c819)" style="fill: none; stroke: #808080; stroke-linecap: round"/>
    <path d="M 108.696972 519.30497 
L 106.128022 510.737561 
L 114.523319 513.822846 
L 108.696972 519.30497 
z
" clip-path="url(#pcbe335c819)" style="fill: #808080; stroke: #808080; stroke-linecap: round"/>
   </g>
   <g id="patch_34">
    <path d="M 209.774397 612.244677 
Q 344.744857 620.719518 478.599481 629.124296 
" clip-path="url(#pcbe335c819)" style="fill: none; stroke: #808080; stroke-linecap: round"/>
    <path d="M 470.865873 624.630823 
L 478.599481 629.124296 
L 470.364537 632.615099 
L 470.865873 624.630823 
z
" clip-path="url(#pcbe335c819)" style="fill: #808080; stroke: #808080; stroke-linecap: round"/>
   </g>
   <g id="patch_35">
    <path d="M 209.367365 614.373834 
Q 271.77541 634.611418 333.119941 654.504128 
" clip-path="url(#pcbe335c819)" style="fill: none; stroke: #808080; stroke-linecap: round"/>
    <path d="M 326.743917 648.231464 
L 333.119941 654.504128 
L 324.276195 655.841349 
L 326.743917 648.231464 
z
" clip-path="url(#pcbe335c819)" style="fill: #808080; stroke: #808080; stroke-linecap: round"/>
   </g>
   <g id="patch_36">
    <path d="M 204.339848 603.657361 
Q 281.152345 411.323789 357.550178 220.02851 
" clip-path="url(#pcbe335c819)" style="fill: none; stroke: #808080; stroke-linecap: round"/>
    <path d="M 350.868368 225.974384 
L 357.550178 220.02851 
L 358.297792 228.941482 
L 350.868368 225.974384 
z
" clip-path="url(#pcbe335c819)" style="fill: #808080; stroke: #808080; stroke-linecap: round"/>
   </g>
   <g id="patch_37">
    <path d="M 198.969343 603.31414 
Q 150.27665 414.042878 101.862516 225.854393 
" clip-path="url(#pcbe335c819)" style="fill: none; stroke: #808080; stroke-linecap: round"/>
    <path d="M 99.981867 234.598715 
L 101.862516 225.854393 
L 107.729584 232.605506 
L 99.981867 234.598715 
z
" clip-path="url(#pcbe335c819)" style="fill: #808080; stroke: #808080; stroke-linecap: round"/>
   </g>
   <g id="patch_38">
    <path d="M 333.915512 64.098866 
Q 305.64871 69.480423 278.480215 74.652879 
" clip-path="url(#pcbe335c819)" style="fill: none; stroke: #808080; stroke-linecap: round"/>
    <path d="M 287.087156 77.086099 
L 278.480215 74.652879 
L 285.590956 69.227258 
L 287.087156 77.086099 
z
" clip-path="url(#pcbe335c819)" style="fill: #808080; stroke: #808080; stroke-linecap: round"/>
   </g>
   <g id="patch_39">
    <path d="M 262.196132 81.995694 
Q 184.150536 146.433235 106.96709 210.15895 
" clip-path="url(#pcbe335c819)" style="fill: none; stroke: #808080; stroke-linecap: round"/>
    <path d="M 115.682845 208.150063 
L 106.96709 210.15895 
L 110.589433 201.981014 
L 115.682845 208.150063 
z
" clip-path="url(#pcbe335c819)" style="fill: #808080; stroke: #808080; stroke-linecap: round"/>
   </g>
   <g id="patch_40">
    <path d="M 138.34041 162.929998 
Q 121.430703 186.158272 105.17901 208.482657 
" clip-path="url(#pcbe335c819)" style="fill: none; stroke: #808080; stroke-linecap: round"/>
    <path d="M 113.121229 204.369124 
L 105.17901 208.482657 
L 106.653516 199.660762 
L 113.121229 204.369124 
z
" clip-path="url(#pcbe335c819)" style="fill: #808080; stroke: #808080; stroke-linecap: round"/>
   </g>
   <g id="PathCollection_1">
    <defs>
     <path id="C0_0_fb42ca3694" d="M 0 8.660254 
C 2.296726 8.660254 4.499694 7.747755 6.123724 6.123724 
C 7.747755 4.499694 8.660254 2.296726 8.660254 -0 
C 8.660254 -2.296726 7.747755 -4.499694 6.123724 -6.123724 
C 4.499694 -7.747755 2.296726 -8.660254 0 -8.660254 
C -2.296726 -8.660254 -4.499694 -7.747755 -6.123724 -6.123724 
C -7.747755 -4.499694 -8.660254 -2.296726 -8.660254 0 
C -8.660254 2.296726 -7.747755 4.499694 -6.123724 6.123724 
C -4.499694 7.747755 -2.296726 8.660254 0 8.660254 
z
"/>
    </defs>
    <g clip-path="url(#pcbe335c819)">
     <use xlink:href="#C0_0_fb42ca3694" x="490.517851" y="434.527192" style="fill: #add8e6; stroke: #add8e6"/>
    </g>
    <g clip-path="url(#pcbe335c819)">
     <use xlink:href="#C0_0_fb42ca3694" x="361.177653" y="210.945545" style="fill: #add8e6; stroke: #add8e6"/>
    </g>
    <g clip-path="url(#pcbe335c819)">
     <use xlink:href="#C0_0_fb42ca3694" x="231.837504" y="434.527254" style="fill: #add8e6; stroke: #add8e6"/>
    </g>
    <g clip-path="url(#pcbe335c819)">
     <use xlink:href="#C0_0_fb42ca3694" x="268.874764" y="643.518412" style="fill: #add8e6; stroke: #add8e6"/>
    </g>
    <g clip-path="url(#pcbe335c819)">
     <use xlink:href="#C0_0_fb42ca3694" x="488.35727" y="629.736991" style="fill: #add8e6; stroke: #add8e6"/>
    </g>
    <g clip-path="url(#pcbe335c819)">
     <use xlink:href="#C0_0_fb42ca3694" x="143.435992" y="564.069616" style="fill: #add8e6; stroke: #add8e6"/>
    </g>
    <g clip-path="url(#pcbe335c819)">
     <use xlink:href="#C0_0_fb42ca3694" x="342.422234" y="657.520661" style="fill: #add8e6; stroke: #add8e6"/>
    </g>
    <g clip-path="url(#pcbe335c819)">
     <use xlink:href="#C0_0_fb42ca3694" x="417.14817" y="652.828576" style="fill: #add8e6; stroke: #add8e6"/>
    </g>
    <g clip-path="url(#pcbe335c819)">
     <use xlink:href="#C0_0_fb42ca3694" x="638.900336" y="469.741198" style="fill: #90ee90; stroke: #90ee90"/>
    </g>
    <g clip-path="url(#pcbe335c819)">
     <use xlink:href="#C0_0_fb42ca3694" x="657.520661" y="397.362914" style="fill: #90ee90; stroke: #90ee90"/>
    </g>
    <g clip-path="url(#pcbe335c819)">
     <use xlink:href="#C0_0_fb42ca3694" x="657.520661" y="322.637121" style="fill: #90ee90; stroke: #90ee90"/>
    </g>
    <g clip-path="url(#pcbe335c819)">
     <use xlink:href="#C0_0_fb42ca3694" x="638.900353" y="250.258828" style="fill: #90ee90; stroke: #90ee90"/>
    </g>
    <g clip-path="url(#pcbe335c819)">
     <use xlink:href="#C0_0_fb42ca3694" x="488.357181" y="90.262973" style="fill: #90ee90; stroke: #90ee90"/>
    </g>
    <g clip-path="url(#pcbe335c819)">
     <use xlink:href="#C0_0_fb42ca3694" x="551.575118" y="130.30312" style="fill: #90ee90; stroke: #90ee90"/>
    </g>
    <g clip-path="url(#pcbe335c819)">
     <use xlink:href="#C0_0_fb42ca3694" x="71.863494" y="285.863306" style="fill: #ffa500; stroke: #ffa500"/>
    </g>
    <g clip-path="url(#pcbe335c819)">
     <use xlink:href="#C0_0_fb42ca3694" x="417.148067" y="67.171406" style="fill: #fa8072; stroke: #fa8072"/>
    </g>
    <g clip-path="url(#pcbe335c819)">
     <use xlink:href="#C0_0_fb42ca3694" x="201.127165" y="611.701714" style="fill: #add8e6; stroke: #add8e6"/>
    </g>
    <g clip-path="url(#pcbe335c819)">
     <use xlink:href="#C0_0_fb42ca3694" x="71.863512" y="434.136726" style="fill: #add8e6; stroke: #add8e6"/>
    </g>
    <g clip-path="url(#pcbe335c819)">
     <use xlink:href="#C0_0_fb42ca3694" x="99.426334" y="503.615073" style="fill: #add8e6; stroke: #add8e6"/>
    </g>
    <g clip-path="url(#pcbe335c819)">
     <use xlink:href="#C0_0_fb42ca3694" x="62.479339" y="360.000026" style="fill: #add8e6; stroke: #add8e6"/>
    </g>
    <g clip-path="url(#pcbe335c819)">
     <use xlink:href="#C0_0_fb42ca3694" x="342.42213" y="62.479339" style="fill: #fa8072; stroke: #fa8072"/>
    </g>
    <g clip-path="url(#pcbe335c819)">
     <use xlink:href="#C0_0_fb42ca3694" x="268.874675" y="76.481624" style="fill: #fa8072; stroke: #fa8072"/>
    </g>
    <g clip-path="url(#pcbe335c819)">
     <use xlink:href="#C0_0_fb42ca3694" x="99.426352" y="216.384883" style="fill: #fa8072; stroke: #fa8072"/>
    </g>
    <g clip-path="url(#pcbe335c819)">
     <use xlink:href="#C0_0_fb42ca3694" x="143.43601" y="155.930348" style="fill: #fa8072; stroke: #fa8072"/>
    </g>
   </g>
   <g id="text_1">
    <g clip-path="url(#pcbe335c819)">
     <!-- PROJ -->
     <g transform="translate(476.237851 437.838442) scale(0.12 -0.12)">
      <defs>
       <path id="DejaVuSans-50" d="M 1259 4147 
L 1259 2394 
L 2053 2394 
Q 2494 2394 2734 2622 
Q 2975 2850 2975 3272 
Q 2975 3691 2734 3919 
Q 2494 4147 2053 4147 
L 1259 4147 
z
M 628 4666 
L 2053 4666 
Q 2838 4666 3239 4311 
Q 3641 3956 3641 3272 
Q 3641 2581 3239 2228 
Q 2838 1875 2053 1875 
L 1259 1875 
L 1259 0 
L 628 0 
L 628 4666 
z
" transform="scale(0.015625)"/>
       <path id="DejaVuSans-52" d="M 2841 2188 
Q 3044 2119 3236 1894 
Q 3428 1669 3622 1275 
L 4263 0 
L 3584 0 
L 2988 1197 
Q 2756 1666 2539 1819 
Q 2322 1972 1947 1972 
L 1259 1972 
L 1259 0 
L 628 0 
L 628 4666 
L 2053 4666 
Q 2853 4666 3247 4331 
Q 3641 3997 3641 3322 
Q 3641 2881 3436 2590 
Q 3231 2300 2841 2188 
z
M 1259 4147 
L 1259 2491 
L 2053 2491 
Q 2509 2491 2742 2702 
Q 2975 2913 2975 3322 
Q 2975 3731 2742 3939 
Q 2509 4147 2053 4147 
L 1259 4147 
z
" transform="scale(0.015625)"/>
       <path id="DejaVuSans-4f" d="M 2522 4238 
Q 1834 4238 1429 3725 
Q 1025 3213 1025 2328 
Q 1025 1447 1429 934 
Q 1834 422 2522 422 
Q 3209 422 3611 934 
Q 4013 1447 4013 2328 
Q 4013 3213 3611 3725 
Q 3209 4238 2522 4238 
z
M 2522 4750 
Q 3503 4750 4090 4092 
Q 4678 3434 4678 2328 
Q 4678 1225 4090 567 
Q 3503 -91 2522 -91 
Q 1538 -91 948 565 
Q 359 1222 359 2328 
Q 359 3434 948 4092 
Q 1538 4750 2522 4750 
z
" transform="scale(0.015625)"/>
       <path id="DejaVuSans-4a" d="M 628 4666 
L 1259 4666 
L 1259 325 
Q 1259 -519 939 -900 
Q 619 -1281 -91 -1281 
L -331 -1281 
L -331 -750 
L -134 -750 
Q 284 -750 456 -515 
Q 628 -281 628 325 
L 628 4666 
z
" transform="scale(0.015625)"/>
      </defs>
      <use xlink:href="#DejaVuSans-50"/>
      <use xlink:href="#DejaVuSans-52" x="60.302734"/>
      <use xlink:href="#DejaVuSans-4f" x="129.785156"/>
      <use xlink:href="#DejaVuSans-4a" x="208.496094"/>
     </g>
    </g>
   </g>
   <g id="text_2">
    <g clip-path="url(#pcbe335c819)">
     <!-- GDAL -->
     <g transform="translate(344.566091 214.256795) scale(0.12 -0.12)">
      <defs>
       <path id="DejaVuSans-47" d="M 3809 666 
L 3809 1919 
L 2778 1919 
L 2778 2438 
L 4434 2438 
L 4434 434 
Q 4069 175 3628 42 
Q 3188 -91 2688 -91 
Q 1594 -91 976 548 
Q 359 1188 359 2328 
Q 359 3472 976 4111 
Q 1594 4750 2688 4750 
Q 3144 4750 3555 4637 
Q 3966 4525 4313 4306 
L 4313 3634 
Q 3963 3931 3569 4081 
Q 3175 4231 2741 4231 
Q 1884 4231 1454 3753 
Q 1025 3275 1025 2328 
Q 1025 1384 1454 906 
Q 1884 428 2741 428 
Q 3075 428 3337 486 
Q 3600 544 3809 666 
z
" transform="scale(0.015625)"/>
       <path id="DejaVuSans-44" d="M 1259 4147 
L 1259 519 
L 2022 519 
Q 2988 519 3436 956 
Q 3884 1394 3884 2338 
Q 3884 3275 3436 3711 
Q 2988 4147 2022 4147 
L 1259 4147 
z
M 628 4666 
L 1925 4666 
Q 3281 4666 3915 4102 
Q 4550 3538 4550 2338 
Q 4550 1131 3912 565 
Q 3275 0 1925 0 
L 628 0 
L 628 4666 
z
" transform="scale(0.015625)"/>
       <path id="DejaVuSans-41" d="M 2188 4044 
L 1331 1722 
L 3047 1722 
L 2188 4044 
z
M 1831 4666 
L 2547 4666 
L 4325 0 
L 3669 0 
L 3244 1197 
L 1141 1197 
L 716 0 
L 50 0 
L 1831 4666 
z
" transform="scale(0.015625)"/>
       <path id="DejaVuSans-4c" d="M 628 4666 
L 1259 4666 
L 1259 531 
L 3531 531 
L 3531 0 
L 628 0 
L 628 4666 
z
" transform="scale(0.015625)"/>
      </defs>
      <use xlink:href="#DejaVuSans-47"/>
      <use xlink:href="#DejaVuSans-44" x="77.490234"/>
      <use xlink:href="#DejaVuSans-41" x="152.742188"/>
      <use xlink:href="#DejaVuSans-4c" x="221.150391"/>
     </g>
    </g>
   </g>
   <g id="text_3">
    <g clip-path="url(#pcbe335c819)">
     <!-- GEOS -->
     <g transform="translate(214.865004 437.838504) scale(0.12 -0.12)">
      <defs>
       <path id="DejaVuSans-45" d="M 628 4666 
L 3578 4666 
L 3578 4134 
L 1259 4134 
L 1259 2753 
L 3481 2753 
L 3481 2222 
L 1259 2222 
L 1259 531 
L 3634 531 
L 3634 0 
L 628 0 
L 628 4666 
z
" transform="scale(0.015625)"/>
       <path id="DejaVuSans-53" d="M 3425 4513 
L 3425 3897 
Q 3066 4069 2747 4153 
Q 2428 4238 2131 4238 
Q 1616 4238 1336 4038 
Q 1056 3838 1056 3469 
Q 1056 3159 1242 3001 
Q 1428 2844 1947 2747 
L 2328 2669 
Q 3034 2534 3370 2195 
Q 3706 1856 3706 1288 
Q 3706 609 3251 259 
Q 2797 -91 1919 -91 
Q 1588 -91 1214 -16 
Q 841 59 441 206 
L 441 856 
Q 825 641 1194 531 
Q 1563 422 1919 422 
Q 2459 422 2753 634 
Q 3047 847 3047 1241 
Q 3047 1584 2836 1778 
Q 2625 1972 2144 2069 
L 1759 2144 
Q 1053 2284 737 2584 
Q 422 2884 422 3419 
Q 422 4038 858 4394 
Q 1294 4750 2059 4750 
Q 2388 4750 2728 4690 
Q 3069 4631 3425 4513 
z
" transform="scale(0.015625)"/>
      </defs>
      <use xlink:href="#DejaVuSans-47"/>
      <use xlink:href="#DejaVuSans-45" x="77.490234"/>
      <use xlink:href="#DejaVuSans-4f" x="140.673828"/>
      <use xlink:href="#DejaVuSans-53" x="219.384766"/>
     </g>
    </g>
   </g>
   <g id="text_4">
    <g clip-path="url(#pcbe335c819)">
     <!-- PDAL -->
     <g transform="translate(253.294452 646.829662) scale(0.12 -0.12)">
      <use xlink:href="#DejaVuSans-50"/>
      <use xlink:href="#DejaVuSans-44" x="60.302734"/>
      <use xlink:href="#DejaVuSans-41" x="135.554688"/>
      <use xlink:href="#DejaVuSans-4c" x="203.962891"/>
     </g>
    </g>
   </g>
   <g id="text_5">
    <g clip-path="url(#pcbe335c819)">
     <!-- QGIS -->
     <g transform="translate(473.40602 633.048241) scale(0.12 -0.12)">
      <defs>
       <path id="DejaVuSans-51" d="M 2522 4238 
Q 1834 4238 1429 3725 
Q 1025 3213 1025 2328 
Q 1025 1447 1429 934 
Q 1834 422 2522 422 
Q 3209 422 3611 934 
Q 4013 1447 4013 2328 
Q 4013 3213 3611 3725 
Q 3209 4238 2522 4238 
z
M 3406 84 
L 4238 -825 
L 3475 -825 
L 2784 -78 
Q 2681 -84 2626 -87 
Q 2572 -91 2522 -91 
Q 1538 -91 948 567 
Q 359 1225 359 2328 
Q 359 3434 948 4092 
Q 1538 4750 2522 4750 
Q 3503 4750 4090 4092 
Q 4678 3434 4678 2328 
Q 4678 1516 4351 937 
Q 4025 359 3406 84 
z
" transform="scale(0.015625)"/>
       <path id="DejaVuSans-49" d="M 628 4666 
L 1259 4666 
L 1259 0 
L 628 0 
L 628 4666 
z
" transform="scale(0.015625)"/>
      </defs>
      <use xlink:href="#DejaVuSans-51"/>
      <use xlink:href="#DejaVuSans-47" x="78.710938"/>
      <use xlink:href="#DejaVuSans-49" x="156.201172"/>
      <use xlink:href="#DejaVuSans-53" x="185.693359"/>
     </g>
    </g>
   </g>
   <g id="text_6">
    <g clip-path="url(#pcbe335c819)">
     <!-- MDAL -->
     <g transform="translate(126.296617 567.380866) scale(0.12 -0.12)">
      <defs>
       <path id="DejaVuSans-4d" d="M 628 4666 
L 1569 4666 
L 2759 1491 
L 3956 4666 
L 4897 4666 
L 4897 0 
L 4281 0 
L 4281 4097 
L 3078 897 
L 2444 897 
L 1241 4097 
L 1241 0 
L 628 0 
L 628 4666 
z
" transform="scale(0.015625)"/>
      </defs>
      <use xlink:href="#DejaVuSans-4d"/>
      <use xlink:href="#DejaVuSans-44" x="86.279297"/>
      <use xlink:href="#DejaVuSans-41" x="161.53125"/>
      <use xlink:href="#DejaVuSans-4c" x="229.939453"/>
     </g>
    </g>
   </g>
   <g id="text_7">
    <g clip-path="url(#pcbe335c819)">
     <!-- MapServer -->
     <g transform="translate(310.082234 660.831911) scale(0.12 -0.12)">
      <defs>
       <path id="DejaVuSans-61" d="M 2194 1759 
Q 1497 1759 1228 1600 
Q 959 1441 959 1056 
Q 959 750 1161 570 
Q 1363 391 1709 391 
Q 2188 391 2477 730 
Q 2766 1069 2766 1631 
L 2766 1759 
L 2194 1759 
z
M 3341 1997 
L 3341 0 
L 2766 0 
L 2766 531 
Q 2569 213 2275 61 
Q 1981 -91 1556 -91 
Q 1019 -91 701 211 
Q 384 513 384 1019 
Q 384 1609 779 1909 
Q 1175 2209 1959 2209 
L 2766 2209 
L 2766 2266 
Q 2766 2663 2505 2880 
Q 2244 3097 1772 3097 
Q 1472 3097 1187 3025 
Q 903 2953 641 2809 
L 641 3341 
Q 956 3463 1253 3523 
Q 1550 3584 1831 3584 
Q 2591 3584 2966 3190 
Q 3341 2797 3341 1997 
z
" transform="scale(0.015625)"/>
       <path id="DejaVuSans-70" d="M 1159 525 
L 1159 -1331 
L 581 -1331 
L 581 3500 
L 1159 3500 
L 1159 2969 
Q 1341 3281 1617 3432 
Q 1894 3584 2278 3584 
Q 2916 3584 3314 3078 
Q 3713 2572 3713 1747 
Q 3713 922 3314 415 
Q 2916 -91 2278 -91 
Q 1894 -91 1617 61 
Q 1341 213 1159 525 
z
M 3116 1747 
Q 3116 2381 2855 2742 
Q 2594 3103 2138 3103 
Q 1681 3103 1420 2742 
Q 1159 2381 1159 1747 
Q 1159 1113 1420 752 
Q 1681 391 2138 391 
Q 2594 391 2855 752 
Q 3116 1113 3116 1747 
z
" transform="scale(0.015625)"/>
       <path id="DejaVuSans-65" d="M 3597 1894 
L 3597 1613 
L 953 1613 
Q 991 1019 1311 708 
Q 1631 397 2203 397 
Q 2534 397 2845 478 
Q 3156 559 3463 722 
L 3463 178 
Q 3153 47 2828 -22 
Q 2503 -91 2169 -91 
Q 1331 -91 842 396 
Q 353 884 353 1716 
Q 353 2575 817 3079 
Q 1281 3584 2069 3584 
Q 2775 3584 3186 3129 
Q 3597 2675 3597 1894 
z
M 3022 2063 
Q 3016 2534 2758 2815 
Q 2500 3097 2075 3097 
Q 1594 3097 1305 2825 
Q 1016 2553 972 2059 
L 3022 2063 
z
" transform="scale(0.015625)"/>
       <path id="DejaVuSans-72" d="M 2631 2963 
Q 2534 3019 2420 3045 
Q 2306 3072 2169 3072 
Q 1681 3072 1420 2755 
Q 1159 2438 1159 1844 
L 1159 0 
L 581 0 
L 581 3500 
L 1159 3500 
L 1159 2956 
Q 1341 3275 1631 3429 
Q 1922 3584 2338 3584 
Q 2397 3584 2469 3576 
Q 2541 3569 2628 3553 
L 2631 2963 
z
" transform="scale(0.015625)"/>
       <path id="DejaVuSans-76" d="M 191 3500 
L 800 3500 
L 1894 563 
L 2988 3500 
L 3597 3500 
L 2284 0 
L 1503 0 
L 191 3500 
z
" transform="scale(0.015625)"/>
      </defs>
      <use xlink:href="#DejaVuSans-4d"/>
      <use xlink:href="#DejaVuSans-61" x="86.279297"/>
      <use xlink:href="#DejaVuSans-70" x="147.558594"/>
      <use xlink:href="#DejaVuSans-53" x="211.035156"/>
      <use xlink:href="#DejaVuSans-65" x="274.511719"/>
      <use xlink:href="#DejaVuSans-72" x="336.035156"/>
      <use xlink:href="#DejaVuSans-76" x="377.148438"/>
      <use xlink:href="#DejaVuSans-65" x="436.328125"/>
      <use xlink:href="#DejaVuSans-72" x="497.851562"/>
     </g>
    </g>
   </g>
   <g id="text_8">
    <g clip-path="url(#pcbe335c819)">
     <!-- GRASS GIS -->
     <g transform="translate(384.712545 656.139826) scale(0.12 -0.12)">
      <defs>
       <path id="DejaVuSans-20" transform="scale(0.015625)"/>
      </defs>
      <use xlink:href="#DejaVuSans-47"/>
      <use xlink:href="#DejaVuSans-52" x="77.490234"/>
      <use xlink:href="#DejaVuSans-41" x="142.972656"/>
      <use xlink:href="#DejaVuSans-53" x="211.380859"/>
      <use xlink:href="#DejaVuSans-53" x="274.857422"/>
      <use xlink:href="#DejaVuSans-20" x="338.333984"/>
      <use xlink:href="#DejaVuSans-47" x="370.121094"/>
      <use xlink:href="#DejaVuSans-49" x="447.611328"/>
      <use xlink:href="#DejaVuSans-53" x="477.103516"/>
     </g>
    </g>
   </g>
   <g id="text_9">
    <g clip-path="url(#pcbe335c819)">
     <!-- GeoDjango -->
     <g transform="translate(605.641586 473.052448) scale(0.12 -0.12)">
      <defs>
       <path id="DejaVuSans-6f" d="M 1959 3097 
Q 1497 3097 1228 2736 
Q 959 2375 959 1747 
Q 959 1119 1226 758 
Q 1494 397 1959 397 
Q 2419 397 2687 759 
Q 2956 1122 2956 1747 
Q 2956 2369 2687 2733 
Q 2419 3097 1959 3097 
z
M 1959 3584 
Q 2709 3584 3137 3096 
Q 3566 2609 3566 1747 
Q 3566 888 3137 398 
Q 2709 -91 1959 -91 
Q 1206 -91 779 398 
Q 353 888 353 1747 
Q 353 2609 779 3096 
Q 1206 3584 1959 3584 
z
" transform="scale(0.015625)"/>
       <path id="DejaVuSans-6a" d="M 603 3500 
L 1178 3500 
L 1178 -63 
Q 1178 -731 923 -1031 
Q 669 -1331 103 -1331 
L -116 -1331 
L -116 -844 
L 38 -844 
Q 366 -844 484 -692 
Q 603 -541 603 -63 
L 603 3500 
z
M 603 4863 
L 1178 4863 
L 1178 4134 
L 603 4134 
L 603 4863 
z
" transform="scale(0.015625)"/>
       <path id="DejaVuSans-6e" d="M 3513 2113 
L 3513 0 
L 2938 0 
L 2938 2094 
Q 2938 2591 2744 2837 
Q 2550 3084 2163 3084 
Q 1697 3084 1428 2787 
Q 1159 2491 1159 1978 
L 1159 0 
L 581 0 
L 581 3500 
L 1159 3500 
L 1159 2956 
Q 1366 3272 1645 3428 
Q 1925 3584 2291 3584 
Q 2894 3584 3203 3211 
Q 3513 2838 3513 2113 
z
" transform="scale(0.015625)"/>
       <path id="DejaVuSans-67" d="M 2906 1791 
Q 2906 2416 2648 2759 
Q 2391 3103 1925 3103 
Q 1463 3103 1205 2759 
Q 947 2416 947 1791 
Q 947 1169 1205 825 
Q 1463 481 1925 481 
Q 2391 481 2648 825 
Q 2906 1169 2906 1791 
z
M 3481 434 
Q 3481 -459 3084 -895 
Q 2688 -1331 1869 -1331 
Q 1566 -1331 1297 -1286 
Q 1028 -1241 775 -1147 
L 775 -588 
Q 1028 -725 1275 -790 
Q 1522 -856 1778 -856 
Q 2344 -856 2625 -561 
Q 2906 -266 2906 331 
L 2906 616 
Q 2728 306 2450 153 
Q 2172 0 1784 0 
Q 1141 0 747 490 
Q 353 981 353 1791 
Q 353 2603 747 3093 
Q 1141 3584 1784 3584 
Q 2172 3584 2450 3431 
Q 2728 3278 2906 2969 
L 2906 3500 
L 3481 3500 
L 3481 434 
z
" transform="scale(0.015625)"/>
      </defs>
      <use xlink:href="#DejaVuSans-47"/>
      <use xlink:href="#DejaVuSans-65" x="77.490234"/>
      <use xlink:href="#DejaVuSans-6f" x="139.013672"/>
      <use xlink:href="#DejaVuSans-44" x="200.195312"/>
      <use xlink:href="#DejaVuSans-6a" x="277.197266"/>
      <use xlink:href="#DejaVuSans-61" x="304.980469"/>
      <use xlink:href="#DejaVuSans-6e" x="366.259766"/>
      <use xlink:href="#DejaVuSans-67" x="429.638672"/>
      <use xlink:href="#DejaVuSans-6f" x="493.115234"/>
     </g>
    </g>
   </g>
   <g id="text_10">
    <g clip-path="url(#pcbe335c819)">
     <!-- rasterio.py -->
     <g transform="translate(625.240661 400.674164) scale(0.12 -0.12)">
      <defs>
       <path id="DejaVuSans-73" d="M 2834 3397 
L 2834 2853 
Q 2591 2978 2328 3040 
Q 2066 3103 1784 3103 
Q 1356 3103 1142 2972 
Q 928 2841 928 2578 
Q 928 2378 1081 2264 
Q 1234 2150 1697 2047 
L 1894 2003 
Q 2506 1872 2764 1633 
Q 3022 1394 3022 966 
Q 3022 478 2636 193 
Q 2250 -91 1575 -91 
Q 1294 -91 989 -36 
Q 684 19 347 128 
L 347 722 
Q 666 556 975 473 
Q 1284 391 1588 391 
Q 1994 391 2212 530 
Q 2431 669 2431 922 
Q 2431 1156 2273 1281 
Q 2116 1406 1581 1522 
L 1381 1569 
Q 847 1681 609 1914 
Q 372 2147 372 2553 
Q 372 3047 722 3315 
Q 1072 3584 1716 3584 
Q 2034 3584 2315 3537 
Q 2597 3491 2834 3397 
z
" transform="scale(0.015625)"/>
       <path id="DejaVuSans-74" d="M 1172 4494 
L 1172 3500 
L 2356 3500 
L 2356 3053 
L 1172 3053 
L 1172 1153 
Q 1172 725 1289 603 
Q 1406 481 1766 481 
L 2356 481 
L 2356 0 
L 1766 0 
Q 1100 0 847 248 
Q 594 497 594 1153 
L 594 3053 
L 172 3053 
L 172 3500 
L 594 3500 
L 594 4494 
L 1172 4494 
z
" transform="scale(0.015625)"/>
       <path id="DejaVuSans-69" d="M 603 3500 
L 1178 3500 
L 1178 0 
L 603 0 
L 603 3500 
z
M 603 4863 
L 1178 4863 
L 1178 4134 
L 603 4134 
L 603 4863 
z
" transform="scale(0.015625)"/>
       <path id="DejaVuSans-2e" d="M 684 794 
L 1344 794 
L 1344 0 
L 684 0 
L 684 794 
z
" transform="scale(0.015625)"/>
       <path id="DejaVuSans-79" d="M 2059 -325 
Q 1816 -950 1584 -1140 
Q 1353 -1331 966 -1331 
L 506 -1331 
L 506 -850 
L 844 -850 
Q 1081 -850 1212 -737 
Q 1344 -625 1503 -206 
L 1606 56 
L 191 3500 
L 800 3500 
L 1894 763 
L 2988 3500 
L 3597 3500 
L 2059 -325 
z
" transform="scale(0.015625)"/>
      </defs>
      <use xlink:href="#DejaVuSans-72"/>
      <use xlink:href="#DejaVuSans-61" x="41.113281"/>
      <use xlink:href="#DejaVuSans-73" x="102.392578"/>
      <use xlink:href="#DejaVuSans-74" x="154.492188"/>
      <use xlink:href="#DejaVuSans-65" x="193.701172"/>
      <use xlink:href="#DejaVuSans-72" x="255.224609"/>
      <use xlink:href="#DejaVuSans-69" x="296.337891"/>
      <use xlink:href="#DejaVuSans-6f" x="324.121094"/>
      <use xlink:href="#DejaVuSans-2e" x="383.552734"/>
      <use xlink:href="#DejaVuSans-70" x="415.339844"/>
      <use xlink:href="#DejaVuSans-79" x="478.816406"/>
     </g>
    </g>
   </g>
   <g id="text_11">
    <g clip-path="url(#pcbe335c819)">
     <!-- fiona.py -->
     <g transform="translate(633.323786 325.948371) scale(0.12 -0.12)">
      <defs>
       <path id="DejaVuSans-66" d="M 2375 4863 
L 2375 4384 
L 1825 4384 
Q 1516 4384 1395 4259 
Q 1275 4134 1275 3809 
L 1275 3500 
L 2222 3500 
L 2222 3053 
L 1275 3053 
L 1275 0 
L 697 0 
L 697 3053 
L 147 3053 
L 147 3500 
L 697 3500 
L 697 3744 
Q 697 4328 969 4595 
Q 1241 4863 1831 4863 
L 2375 4863 
z
" transform="scale(0.015625)"/>
      </defs>
      <use xlink:href="#DejaVuSans-66"/>
      <use xlink:href="#DejaVuSans-69" x="35.205078"/>
      <use xlink:href="#DejaVuSans-6f" x="62.988281"/>
      <use xlink:href="#DejaVuSans-6e" x="124.169922"/>
      <use xlink:href="#DejaVuSans-61" x="187.548828"/>
      <use xlink:href="#DejaVuSans-2e" x="248.828125"/>
      <use xlink:href="#DejaVuSans-70" x="280.615234"/>
      <use xlink:href="#DejaVuSans-79" x="344.091797"/>
     </g>
    </g>
   </g>
   <g id="text_12">
    <g clip-path="url(#pcbe335c819)">
     <!-- pyogrio -->
     <g transform="translate(616.255041 253.570078) scale(0.12 -0.12)">
      <use xlink:href="#DejaVuSans-70"/>
      <use xlink:href="#DejaVuSans-79" x="63.476562"/>
      <use xlink:href="#DejaVuSans-6f" x="122.65625"/>
      <use xlink:href="#DejaVuSans-67" x="183.837891"/>
      <use xlink:href="#DejaVuSans-72" x="247.314453"/>
      <use xlink:href="#DejaVuSans-69" x="288.427734"/>
      <use xlink:href="#DejaVuSans-6f" x="316.210938"/>
     </g>
    </g>
   </g>
   <g id="text_13">
    <g clip-path="url(#pcbe335c819)">
     <!-- GeoPandas.py -->
     <g transform="translate(445.639056 93.574223) scale(0.12 -0.12)">
      <defs>
       <path id="DejaVuSans-64" d="M 2906 2969 
L 2906 4863 
L 3481 4863 
L 3481 0 
L 2906 0 
L 2906 525 
Q 2725 213 2448 61 
Q 2172 -91 1784 -91 
Q 1150 -91 751 415 
Q 353 922 353 1747 
Q 353 2572 751 3078 
Q 1150 3584 1784 3584 
Q 2172 3584 2448 3432 
Q 2725 3281 2906 2969 
z
M 947 1747 
Q 947 1113 1208 752 
Q 1469 391 1925 391 
Q 2381 391 2643 752 
Q 2906 1113 2906 1747 
Q 2906 2381 2643 2742 
Q 2381 3103 1925 3103 
Q 1469 3103 1208 2742 
Q 947 2381 947 1747 
z
" transform="scale(0.015625)"/>
      </defs>
      <use xlink:href="#DejaVuSans-47"/>
      <use xlink:href="#DejaVuSans-65" x="77.490234"/>
      <use xlink:href="#DejaVuSans-6f" x="139.013672"/>
      <use xlink:href="#DejaVuSans-50" x="200.195312"/>
      <use xlink:href="#DejaVuSans-61" x="255.998047"/>
      <use xlink:href="#DejaVuSans-6e" x="317.277344"/>
      <use xlink:href="#DejaVuSans-64" x="380.65625"/>
      <use xlink:href="#DejaVuSans-61" x="444.132812"/>
      <use xlink:href="#DejaVuSans-73" x="505.412109"/>
      <use xlink:href="#DejaVuSans-2e" x="557.511719"/>
      <use xlink:href="#DejaVuSans-70" x="589.298828"/>
      <use xlink:href="#DejaVuSans-79" x="652.775391"/>
     </g>
    </g>
   </g>
   <g id="text_14">
    <g clip-path="url(#pcbe335c819)">
     <!-- shapely.py -->
     <g transform="translate(519.838868 133.61437) scale(0.12 -0.12)">
      <defs>
       <path id="DejaVuSans-68" d="M 3513 2113 
L 3513 0 
L 2938 0 
L 2938 2094 
Q 2938 2591 2744 2837 
Q 2550 3084 2163 3084 
Q 1697 3084 1428 2787 
Q 1159 2491 1159 1978 
L 1159 0 
L 581 0 
L 581 4863 
L 1159 4863 
L 1159 2956 
Q 1366 3272 1645 3428 
Q 1925 3584 2291 3584 
Q 2894 3584 3203 3211 
Q 3513 2838 3513 2113 
z
" transform="scale(0.015625)"/>
       <path id="DejaVuSans-6c" d="M 603 4863 
L 1178 4863 
L 1178 0 
L 603 0 
L 603 4863 
z
" transform="scale(0.015625)"/>
      </defs>
      <use xlink:href="#DejaVuSans-73"/>
      <use xlink:href="#DejaVuSans-68" x="52.099609"/>
      <use xlink:href="#DejaVuSans-61" x="115.478516"/>
      <use xlink:href="#DejaVuSans-70" x="176.757812"/>
      <use xlink:href="#DejaVuSans-65" x="240.234375"/>
      <use xlink:href="#DejaVuSans-6c" x="301.757812"/>
      <use xlink:href="#DejaVuSans-79" x="329.541016"/>
      <use xlink:href="#DejaVuSans-2e" x="374.470703"/>
      <use xlink:href="#DejaVuSans-70" x="406.257812"/>
      <use xlink:href="#DejaVuSans-79" x="469.734375"/>
     </g>
    </g>
   </g>
   <g id="text_15">
    <g clip-path="url(#pcbe335c819)">
     <!-- r-spatial.r -->
     <g transform="translate(43.266932 289.174556) scale(0.12 -0.12)">
      <defs>
       <path id="DejaVuSans-2d" d="M 313 2009 
L 1997 2009 
L 1997 1497 
L 313 1497 
L 313 2009 
z
" transform="scale(0.015625)"/>
      </defs>
      <use xlink:href="#DejaVuSans-72"/>
      <use xlink:href="#DejaVuSans-2d" x="34.738281"/>
      <use xlink:href="#DejaVuSans-73" x="70.822266"/>
      <use xlink:href="#DejaVuSans-70" x="122.921875"/>
      <use xlink:href="#DejaVuSans-61" x="186.398438"/>
      <use xlink:href="#DejaVuSans-74" x="247.677734"/>
      <use xlink:href="#DejaVuSans-69" x="286.886719"/>
      <use xlink:href="#DejaVuSans-61" x="314.669922"/>
      <use xlink:href="#DejaVuSans-6c" x="375.949219"/>
      <use xlink:href="#DejaVuSans-2e" x="403.732422"/>
      <use xlink:href="#DejaVuSans-72" x="435.519531"/>
     </g>
    </g>
   </g>
   <g id="text_16">
    <g clip-path="url(#pcbe335c819)">
     <!-- GeoNode -->
     <g transform="translate(389.474942 70.482656) scale(0.12 -0.12)">
      <defs>
       <path id="DejaVuSans-4e" d="M 628 4666 
L 1478 4666 
L 3547 763 
L 3547 4666 
L 4159 4666 
L 4159 0 
L 3309 0 
L 1241 3903 
L 1241 0 
L 628 0 
L 628 4666 
z
" transform="scale(0.015625)"/>
      </defs>
      <use xlink:href="#DejaVuSans-47"/>
      <use xlink:href="#DejaVuSans-65" x="77.490234"/>
      <use xlink:href="#DejaVuSans-6f" x="139.013672"/>
      <use xlink:href="#DejaVuSans-4e" x="200.195312"/>
      <use xlink:href="#DejaVuSans-6f" x="275"/>
      <use xlink:href="#DejaVuSans-64" x="336.181641"/>
      <use xlink:href="#DejaVuSans-65" x="399.658203"/>
     </g>
    </g>
   </g>
   <g id="text_17">
    <g clip-path="url(#pcbe335c819)">
     <!-- PostGIS -->
     <g transform="translate(178.349665 615.012964) scale(0.12 -0.12)">
      <use xlink:href="#DejaVuSans-50"/>
      <use xlink:href="#DejaVuSans-6f" x="56.677734"/>
      <use xlink:href="#DejaVuSans-73" x="117.859375"/>
      <use xlink:href="#DejaVuSans-74" x="169.958984"/>
      <use xlink:href="#DejaVuSans-47" x="209.167969"/>
      <use xlink:href="#DejaVuSans-49" x="286.658203"/>
      <use xlink:href="#DejaVuSans-53" x="316.150391"/>
     </g>
    </g>
   </g>
   <g id="text_18">
    <g clip-path="url(#pcbe335c819)">
     <!-- PostGISRaster -->
     <g transform="translate(29.738825 437.447976) scale(0.12 -0.12)">
      <use xlink:href="#DejaVuSans-50"/>
      <use xlink:href="#DejaVuSans-6f" x="56.677734"/>
      <use xlink:href="#DejaVuSans-73" x="117.859375"/>
      <use xlink:href="#DejaVuSans-74" x="169.958984"/>
      <use xlink:href="#DejaVuSans-47" x="209.167969"/>
      <use xlink:href="#DejaVuSans-49" x="286.658203"/>
      <use xlink:href="#DejaVuSans-53" x="316.150391"/>
      <use xlink:href="#DejaVuSans-52" x="379.626953"/>
      <use xlink:href="#DejaVuSans-61" x="446.859375"/>
      <use xlink:href="#DejaVuSans-73" x="508.138672"/>
      <use xlink:href="#DejaVuSans-74" x="560.238281"/>
      <use xlink:href="#DejaVuSans-65" x="599.447266"/>
      <use xlink:href="#DejaVuSans-72" x="660.970703"/>
     </g>
    </g>
   </g>
   <g id="text_19">
    <g clip-path="url(#pcbe335c819)">
     <!-- PgRouting -->
     <g transform="translate(68.996021 506.926323) scale(0.12 -0.12)">
      <defs>
       <path id="DejaVuSans-75" d="M 544 1381 
L 544 3500 
L 1119 3500 
L 1119 1403 
Q 1119 906 1312 657 
Q 1506 409 1894 409 
Q 2359 409 2629 706 
Q 2900 1003 2900 1516 
L 2900 3500 
L 3475 3500 
L 3475 0 
L 2900 0 
L 2900 538 
Q 2691 219 2414 64 
Q 2138 -91 1772 -91 
Q 1169 -91 856 284 
Q 544 659 544 1381 
z
M 1991 3584 
L 1991 3584 
z
" transform="scale(0.015625)"/>
      </defs>
      <use xlink:href="#DejaVuSans-50"/>
      <use xlink:href="#DejaVuSans-67" x="60.302734"/>
      <use xlink:href="#DejaVuSans-52" x="123.779297"/>
      <use xlink:href="#DejaVuSans-6f" x="188.761719"/>
      <use xlink:href="#DejaVuSans-75" x="249.943359"/>
      <use xlink:href="#DejaVuSans-74" x="313.322266"/>
      <use xlink:href="#DejaVuSans-69" x="352.53125"/>
      <use xlink:href="#DejaVuSans-6e" x="380.314453"/>
      <use xlink:href="#DejaVuSans-67" x="443.693359"/>
     </g>
    </g>
   </g>
   <g id="text_20">
    <g clip-path="url(#pcbe335c819)">
     <!-- Valhalla -->
     <g transform="translate(39.006214 363.311276) scale(0.12 -0.12)">
      <defs>
       <path id="DejaVuSans-56" d="M 1831 0 
L 50 4666 
L 709 4666 
L 2188 738 
L 3669 4666 
L 4325 4666 
L 2547 0 
L 1831 0 
z
" transform="scale(0.015625)"/>
      </defs>
      <use xlink:href="#DejaVuSans-56"/>
      <use xlink:href="#DejaVuSans-61" x="60.658203"/>
      <use xlink:href="#DejaVuSans-6c" x="121.9375"/>
      <use xlink:href="#DejaVuSans-68" x="149.720703"/>
      <use xlink:href="#DejaVuSans-61" x="213.099609"/>
      <use xlink:href="#DejaVuSans-6c" x="274.378906"/>
      <use xlink:href="#DejaVuSans-6c" x="302.162109"/>
      <use xlink:href="#DejaVuSans-61" x="329.945312"/>
     </g>
    </g>
   </g>
   <g id="text_21">
    <g clip-path="url(#pcbe335c819)">
     <!-- imageio-ext-gdal -->
     <g transform="translate(291.50088 65.790589) scale(0.12 -0.12)">
      <defs>
       <path id="DejaVuSans-6d" d="M 3328 2828 
Q 3544 3216 3844 3400 
Q 4144 3584 4550 3584 
Q 5097 3584 5394 3201 
Q 5691 2819 5691 2113 
L 5691 0 
L 5113 0 
L 5113 2094 
Q 5113 2597 4934 2840 
Q 4756 3084 4391 3084 
Q 3944 3084 3684 2787 
Q 3425 2491 3425 1978 
L 3425 0 
L 2847 0 
L 2847 2094 
Q 2847 2600 2669 2842 
Q 2491 3084 2119 3084 
Q 1678 3084 1418 2786 
Q 1159 2488 1159 1978 
L 1159 0 
L 581 0 
L 581 3500 
L 1159 3500 
L 1159 2956 
Q 1356 3278 1631 3431 
Q 1906 3584 2284 3584 
Q 2666 3584 2933 3390 
Q 3200 3197 3328 2828 
z
" transform="scale(0.015625)"/>
       <path id="DejaVuSans-78" d="M 3513 3500 
L 2247 1797 
L 3578 0 
L 2900 0 
L 1881 1375 
L 863 0 
L 184 0 
L 1544 1831 
L 300 3500 
L 978 3500 
L 1906 2253 
L 2834 3500 
L 3513 3500 
z
" transform="scale(0.015625)"/>
      </defs>
      <use xlink:href="#DejaVuSans-69"/>
      <use xlink:href="#DejaVuSans-6d" x="27.783203"/>
      <use xlink:href="#DejaVuSans-61" x="125.195312"/>
      <use xlink:href="#DejaVuSans-67" x="186.474609"/>
      <use xlink:href="#DejaVuSans-65" x="249.951172"/>
      <use xlink:href="#DejaVuSans-69" x="311.474609"/>
      <use xlink:href="#DejaVuSans-6f" x="339.257812"/>
      <use xlink:href="#DejaVuSans-2d" x="402.314453"/>
      <use xlink:href="#DejaVuSans-65" x="438.398438"/>
      <use xlink:href="#DejaVuSans-78" x="498.171875"/>
      <use xlink:href="#DejaVuSans-74" x="557.351562"/>
      <use xlink:href="#DejaVuSans-2d" x="596.560547"/>
      <use xlink:href="#DejaVuSans-67" x="632.644531"/>
      <use xlink:href="#DejaVuSans-64" x="696.121094"/>
      <use xlink:href="#DejaVuSans-61" x="759.597656"/>
      <use xlink:href="#DejaVuSans-6c" x="820.876953"/>
     </g>
    </g>
   </g>
   <g id="text_22">
    <g clip-path="url(#pcbe335c819)">
     <!-- GeoTools -->
     <g transform="translate(242.0828 79.792874) scale(0.12 -0.12)">
      <defs>
       <path id="DejaVuSans-54" d="M -19 4666 
L 3928 4666 
L 3928 4134 
L 2272 4134 
L 2272 0 
L 1638 0 
L 1638 4134 
L -19 4134 
L -19 4666 
z
" transform="scale(0.015625)"/>
      </defs>
      <use xlink:href="#DejaVuSans-47"/>
      <use xlink:href="#DejaVuSans-65" x="77.490234"/>
      <use xlink:href="#DejaVuSans-6f" x="139.013672"/>
      <use xlink:href="#DejaVuSans-54" x="200.195312"/>
      <use xlink:href="#DejaVuSans-6f" x="244.279297"/>
      <use xlink:href="#DejaVuSans-6f" x="305.460938"/>
      <use xlink:href="#DejaVuSans-6c" x="366.642578"/>
      <use xlink:href="#DejaVuSans-73" x="394.425781"/>
     </g>
    </g>
   </g>
   <g id="text_23">
    <g clip-path="url(#pcbe335c819)">
     <!-- GeoServer -->
     <g transform="translate(67.736977 219.696133) scale(0.12 -0.12)">
      <use xlink:href="#DejaVuSans-47"/>
      <use xlink:href="#DejaVuSans-65" x="77.490234"/>
      <use xlink:href="#DejaVuSans-6f" x="139.013672"/>
      <use xlink:href="#DejaVuSans-53" x="200.195312"/>
      <use xlink:href="#DejaVuSans-65" x="263.671875"/>
      <use xlink:href="#DejaVuSans-72" x="325.195312"/>
      <use xlink:href="#DejaVuSans-76" x="366.308594"/>
      <use xlink:href="#DejaVuSans-65" x="425.488281"/>
      <use xlink:href="#DejaVuSans-72" x="487.011719"/>
     </g>
    </g>
   </g>
   <g id="text_24">
    <g clip-path="url(#pcbe335c819)">
     <!-- geoserver.gdal -->
     <g transform="translate(98.948823 159.241598) scale(0.12 -0.12)">
      <use xlink:href="#DejaVuSans-67"/>
      <use xlink:href="#DejaVuSans-65" x="63.476562"/>
      <use xlink:href="#DejaVuSans-6f" x="125"/>
      <use xlink:href="#DejaVuSans-73" x="186.181641"/>
      <use xlink:href="#DejaVuSans-65" x="238.28125"/>
      <use xlink:href="#DejaVuSans-72" x="299.804688"/>
      <use xlink:href="#DejaVuSans-76" x="340.917969"/>
      <use xlink:href="#DejaVuSans-65" x="400.097656"/>
      <use xlink:href="#DejaVuSans-72" x="461.621094"/>
      <use xlink:href="#DejaVuSans-2e" x="493.609375"/>
      <use xlink:href="#DejaVuSans-67" x="525.396484"/>
      <use xlink:href="#DejaVuSans-64" x="588.873047"/>
      <use xlink:href="#DejaVuSans-61" x="652.349609"/>
      <use xlink:href="#DejaVuSans-6c" x="713.628906"/>
     </g>
    </g>
   </g>
   <g id="text_25">
    <!-- Dependencies between FOSS4G stack -->
    <g transform="translate(245.444063 -6) scale(0.12 -0.12)">
     <defs>
      <path id="DejaVuSans-63" d="M 3122 3366 
L 3122 2828 
Q 2878 2963 2633 3030 
Q 2388 3097 2138 3097 
Q 1578 3097 1268 2742 
Q 959 2388 959 1747 
Q 959 1106 1268 751 
Q 1578 397 2138 397 
Q 2388 397 2633 464 
Q 2878 531 3122 666 
L 3122 134 
Q 2881 22 2623 -34 
Q 2366 -91 2075 -91 
Q 1284 -91 818 406 
Q 353 903 353 1747 
Q 353 2603 823 3093 
Q 1294 3584 2113 3584 
Q 2378 3584 2631 3529 
Q 2884 3475 3122 3366 
z
" transform="scale(0.015625)"/>
      <path id="DejaVuSans-62" d="M 3116 1747 
Q 3116 2381 2855 2742 
Q 2594 3103 2138 3103 
Q 1681 3103 1420 2742 
Q 1159 2381 1159 1747 
Q 1159 1113 1420 752 
Q 1681 391 2138 391 
Q 2594 391 2855 752 
Q 3116 1113 3116 1747 
z
M 1159 2969 
Q 1341 3281 1617 3432 
Q 1894 3584 2278 3584 
Q 2916 3584 3314 3078 
Q 3713 2572 3713 1747 
Q 3713 922 3314 415 
Q 2916 -91 2278 -91 
Q 1894 -91 1617 61 
Q 1341 213 1159 525 
L 1159 0 
L 581 0 
L 581 4863 
L 1159 4863 
L 1159 2969 
z
" transform="scale(0.015625)"/>
      <path id="DejaVuSans-77" d="M 269 3500 
L 844 3500 
L 1563 769 
L 2278 3500 
L 2956 3500 
L 3675 769 
L 4391 3500 
L 4966 3500 
L 4050 0 
L 3372 0 
L 2619 2869 
L 1863 0 
L 1184 0 
L 269 3500 
z
" transform="scale(0.015625)"/>
      <path id="DejaVuSans-46" d="M 628 4666 
L 3309 4666 
L 3309 4134 
L 1259 4134 
L 1259 2759 
L 3109 2759 
L 3109 2228 
L 1259 2228 
L 1259 0 
L 628 0 
L 628 4666 
z
" transform="scale(0.015625)"/>
      <path id="DejaVuSans-34" d="M 2419 4116 
L 825 1625 
L 2419 1625 
L 2419 4116 
z
M 2253 4666 
L 3047 4666 
L 3047 1625 
L 3713 1625 
L 3713 1100 
L 3047 1100 
L 3047 0 
L 2419 0 
L 2419 1100 
L 313 1100 
L 313 1709 
L 2253 4666 
z
" transform="scale(0.015625)"/>
      <path id="DejaVuSans-6b" d="M 581 4863 
L 1159 4863 
L 1159 1991 
L 2875 3500 
L 3609 3500 
L 1753 1863 
L 3688 0 
L 2938 0 
L 1159 1709 
L 1159 0 
L 581 0 
L 581 4863 
z
" transform="scale(0.015625)"/>
     </defs>
     <use xlink:href="#DejaVuSans-44"/>
     <use xlink:href="#DejaVuSans-65" x="77.001953"/>
     <use xlink:href="#DejaVuSans-70" x="138.525391"/>
     <use xlink:href="#DejaVuSans-65" x="202.001953"/>
     <use xlink:href="#DejaVuSans-6e" x="263.525391"/>
     <use xlink:href="#DejaVuSans-64" x="326.904297"/>
     <use xlink:href="#DejaVuSans-65" x="390.380859"/>
     <use xlink:href="#DejaVuSans-6e" x="451.904297"/>
     <use xlink:href="#DejaVuSans-63" x="515.283203"/>
     <use xlink:href="#DejaVuSans-69" x="570.263672"/>
     <use xlink:href="#DejaVuSans-65" x="598.046875"/>
     <use xlink:href="#DejaVuSans-73" x="659.570312"/>
     <use xlink:href="#DejaVuSans-20" x="711.669922"/>
     <use xlink:href="#DejaVuSans-62" x="743.457031"/>
     <use xlink:href="#DejaVuSans-65" x="806.933594"/>
     <use xlink:href="#DejaVuSans-74" x="868.457031"/>
     <use xlink:href="#DejaVuSans-77" x="907.666016"/>
     <use xlink:href="#DejaVuSans-65" x="989.453125"/>
     <use xlink:href="#DejaVuSans-65" x="1050.976562"/>
     <use xlink:href="#DejaVuSans-6e" x="1112.5"/>
     <use xlink:href="#DejaVuSans-20" x="1175.878906"/>
     <use xlink:href="#DejaVuSans-46" x="1207.666016"/>
     <use xlink:href="#DejaVuSans-4f" x="1265.185547"/>
     <use xlink:href="#DejaVuSans-53" x="1343.896484"/>
     <use xlink:href="#DejaVuSans-53" x="1407.373047"/>
     <use xlink:href="#DejaVuSans-34" x="1470.849609"/>
     <use xlink:href="#DejaVuSans-47" x="1534.472656"/>
     <use xlink:href="#DejaVuSans-20" x="1611.962891"/>
     <use xlink:href="#DejaVuSans-73" x="1643.75"/>
     <use xlink:href="#DejaVuSans-74" x="1695.849609"/>
     <use xlink:href="#DejaVuSans-61" x="1735.058594"/>
     <use xlink:href="#DejaVuSans-63" x="1796.337891"/>
     <use xlink:href="#DejaVuSans-6b" x="1851.318359"/>
    </g>
   </g>
  </g>
 </g>
 <defs>
  <clipPath id="pcbe335c819">
   <rect x="0" y="0" width="720" height="720"/>
  </clipPath>
 </defs>
</svg>
